<svg version="1" xmlns="http://www.w3.org/2000/svg" viewBox="0 0 512 512">
  <circle cx="256" cy="256" r="256" fill="#71b84f"/>
  <path d="M508 300L314 105l-9 105-93-104-3 115 45 184v107h2c126 0 232-92 252-212z" fill="#63a147"/>
  <path d="M201 103h3c7 0 12 5 12 12v95c0 7-5 12-12 12h-3c-6 0-12-5-12-12v-95c0-7 6-12 12-12z" fill="#ebecec"/>
  <path d="M202 103h2c7 0 12 5 12 12v95c0 7-5 12-12 12h-2V103z" fill="#c5c6c6"/>
  <path d="M303 103h4c6 0 11 5 11 12v95c0 7-5 12-11 12h-4c-6 0-11-5-11-12v-95c0-7 5-12 11-12z" fill="#ebecec"/>
  <path d="M305 103h2c6 0 11 5 11 12v95c0 7-5 12-11 12h-2V103z" fill="#c5c6c6"/>
  <path d="M243 403h22v109a284 284 0 0 1-22 0V403z" fill="#e84f4f"/>
  <path d="M254 403h11v109h-11V403z" fill="#c94545"/>
  <path d="M243 364h22c6 0 10 5 10 10v23c0 5-4 10-10 10h-22c-5 0-10-5-10-10v-23c0-5 5-10 10-10z" fill="#006775"/>
  <g fill="#004f59">
    <path d="M254 364h11c6 0 10 5 10 10v23c0 5-4 10-10 10h-11v-43z"/>
    <path d="M163 214h186v108c0 32-27 59-60 59h-66c-33 0-60-27-60-59V214z"/>
  </g>
  <path d="M159 203h194c8 0 14 6 14 14 0 7-6 13-14 13H159c-8 0-14-6-14-13 0-8 6-14 14-14z" fill="#006775"/>
  <path d="M367 217c0 7-6 13-14 13H159c-8 0-14-6-14-13h222z" fill="#004f59"/>
</svg>
