<svg xmlns="http://www.w3.org/2000/svg" width="197.501" height="161.764" viewBox="0 0 197.501 161.764"><defs><style>.a,.d{fill:#fff;}.b{fill:#c2d4e7;}.c{fill:#0872b4;}.d{opacity:0.5;}.e{fill:#003558;opacity:0.4;}.f{fill:#056fb5;}.g{fill:#09cce2;}.h{fill:#49a6ff;}.i{fill:none;}.j{fill:#619ac1;}.k{fill:#e6f2ff;}</style></defs><g transform="translate(6.5)"><g transform="translate(98.146)"><g transform="translate(0.672 1.092)"><rect class="a" width="90.753" height="126.803"/><g transform="translate(4.182 26.908)"><rect class="b" width="83" height="16" rx="2" transform="translate(0 -0.152)"/><g transform="translate(5 4)"><rect class="c" width="12" height="6" rx="3" transform="translate(0 0.848)"/><rect class="d" width="13" height="4" transform="translate(50 1.848)"/><rect class="e" width="8" height="8" rx="4" transform="translate(40 -0.152)"/><path class="a" d="M.27-1.968H.519v.825h.915v-.825h.252V0H1.434V-.927H.519V0H.27Zm1.956,0h.249V0H2.226ZM2.9-.984a1.261,1.261,0,0,1,.068-.426.928.928,0,0,1,.189-.321.826.826,0,0,1,.286-.2A.914.914,0,0,1,3.807-2a.689.689,0,0,1,.341.076.963.963,0,0,1,.223.166L4.23-1.6a.694.694,0,0,0-.173-.13.519.519,0,0,0-.247-.053.636.636,0,0,0-.27.056.565.565,0,0,0-.2.159.753.753,0,0,0-.131.251,1.092,1.092,0,0,0-.046.33A1.189,1.189,0,0,0,3.2-.655.744.744,0,0,0,3.328-.4a.556.556,0,0,0,.2.162.654.654,0,0,0,.281.057.627.627,0,0,0,.2-.032A.432.432,0,0,0,4.167-.3V-.813H3.75V-1.02h.645v.828a.736.736,0,0,1-.253.164.931.931,0,0,1-.356.064.9.9,0,0,1-.357-.069.781.781,0,0,1-.279-.2.93.93,0,0,1-.183-.321A1.31,1.31,0,0,1,2.9-.984Zm1.965-.984h.249v.825H6.03v-.825h.252V0H6.03V-.927H5.115V0H4.866Z" transform="translate(3 5)"/></g><path class="f" d="M.38-.4A.46.46,0,0,1,.507-.733.423.423,0,0,1,.825-.865a.423.423,0,0,1,.317.132A.46.46,0,0,1,1.27-.4a.454.454,0,0,1-.128.327A.423.423,0,0,1,.825.06.423.423,0,0,1,.507-.072.454.454,0,0,1,.38-.4Zm1.655,0a.46.46,0,0,1,.127-.333A.423.423,0,0,1,2.48-.865.423.423,0,0,1,2.8-.733.46.46,0,0,1,2.925-.4.454.454,0,0,1,2.8-.072.423.423,0,0,1,2.48.06a.423.423,0,0,1-.318-.133A.454.454,0,0,1,2.035-.4ZM3.69-.4a.46.46,0,0,1,.128-.333.423.423,0,0,1,.318-.132.423.423,0,0,1,.317.132A.46.46,0,0,1,4.58-.4a.454.454,0,0,1-.128.327A.423.423,0,0,1,4.135.06a.423.423,0,0,1-.318-.133A.454.454,0,0,1,3.69-.4Z" transform="translate(73 9)"/><path class="f" d="M1.245.06A.846.846,0,0,1,.49-.37,2.333,2.333,0,0,1,.22-1.605,2.279,2.279,0,0,1,.49-2.83a.85.85,0,0,1,.755-.42.846.846,0,0,1,.75.42,2.279,2.279,0,0,1,.27,1.225A2.333,2.333,0,0,1,1.995-.37.842.842,0,0,1,1.245.06Zm0-.33A.435.435,0,0,0,1.5-.347a.628.628,0,0,0,.2-.24A1.51,1.51,0,0,0,1.82-1a3.486,3.486,0,0,0,.045-.6,3.442,3.442,0,0,0-.045-.6,1.434,1.434,0,0,0-.127-.407.612.612,0,0,0-.2-.233.445.445,0,0,0-.252-.075.457.457,0,0,0-.255.075.6.6,0,0,0-.2.233,1.434,1.434,0,0,0-.127.407,3.442,3.442,0,0,0-.045.6A2.242,2.242,0,0,0,.793-.587.512.512,0,0,0,1.245-.27ZM3.66-1.55a.7.7,0,0,0,.332-.1,1.037,1.037,0,0,0,.338-.328,1.375,1.375,0,0,0-.22-.71.575.575,0,0,0-.485-.24.49.49,0,0,0-.218.05.521.521,0,0,0-.177.142.689.689,0,0,0-.118.223.913.913,0,0,0-.042.285.768.768,0,0,0,.145.5A.537.537,0,0,0,3.66-1.55ZM2.97-.535a.781.781,0,0,0,.238.185.626.626,0,0,0,.287.07.747.747,0,0,0,.32-.07A.681.681,0,0,0,4.08-.582,1.326,1.326,0,0,0,4.265-1,2.657,2.657,0,0,0,4.34-1.65a1.15,1.15,0,0,1-.35.3.824.824,0,0,1-.4.11.892.892,0,0,1-.66-.245,1.006,1.006,0,0,1-.245-.74,1.115,1.115,0,0,1,.075-.418,1.01,1.01,0,0,1,.2-.322.9.9,0,0,1,.3-.21.9.9,0,0,1,.363-.075,1.017,1.017,0,0,1,.438.1.944.944,0,0,1,.35.288,1.43,1.43,0,0,1,.23.48,2.45,2.45,0,0,1,.082.673,2.906,2.906,0,0,1-.1.817,1.6,1.6,0,0,1-.27.55,1.044,1.044,0,0,1-.388.31,1.106,1.106,0,0,1-.457.1,1,1,0,0,1-.447-.1,1.053,1.053,0,0,1-.323-.24ZM6.355-3.55h.3L5.32.8h-.3Zm.565,3.3q.36-.36.64-.65a6.387,6.387,0,0,0,.47-.537,2.667,2.667,0,0,0,.29-.455.925.925,0,0,0,.1-.4.667.667,0,0,0-.15-.45.567.567,0,0,0-.455-.175.657.657,0,0,0-.37.112,1.542,1.542,0,0,0-.31.273L6.9-2.765a1.838,1.838,0,0,1,.425-.352,1.046,1.046,0,0,1,.54-.133.941.941,0,0,1,.7.257.928.928,0,0,1,.255.683,1.141,1.141,0,0,1-.1.452,2.554,2.554,0,0,1-.27.47,5.583,5.583,0,0,1-.41.505Q7.8-.62,7.52-.325l.27-.02q.14-.01.265-.01H8.98V0H6.92Zm3.53.3a.846.846,0,0,1-.755-.43,2.333,2.333,0,0,1-.27-1.235,2.279,2.279,0,0,1,.27-1.225.85.85,0,0,1,.755-.42.846.846,0,0,1,.75.42,2.279,2.279,0,0,1,.27,1.225A2.333,2.333,0,0,1,11.2-.37.842.842,0,0,1,10.45.06Zm0-.33A.435.435,0,0,0,10.7-.347a.628.628,0,0,0,.2-.24A1.51,1.51,0,0,0,11.025-1a3.486,3.486,0,0,0,.045-.6,3.442,3.442,0,0,0-.045-.6,1.434,1.434,0,0,0-.127-.407.612.612,0,0,0-.2-.233.445.445,0,0,0-.252-.075.457.457,0,0,0-.255.075.6.6,0,0,0-.2.233,1.434,1.434,0,0,0-.127.407,3.442,3.442,0,0,0-.045.6A2.242,2.242,0,0,0,10-.587.512.512,0,0,0,10.45-.27Zm2.625-3.28h.3L12.04.8h-.3Zm.565,3.3q.36-.36.64-.65a6.388,6.388,0,0,0,.47-.537,2.667,2.667,0,0,0,.29-.455.925.925,0,0,0,.1-.4.667.667,0,0,0-.15-.45.567.567,0,0,0-.455-.175.657.657,0,0,0-.37.112,1.542,1.542,0,0,0-.31.273l-.235-.235a1.838,1.838,0,0,1,.425-.352,1.046,1.046,0,0,1,.54-.133.941.941,0,0,1,.7.257.928.928,0,0,1,.255.683,1.141,1.141,0,0,1-.1.452,2.554,2.554,0,0,1-.27.47,5.583,5.583,0,0,1-.41.505q-.238.262-.523.557l.27-.02q.14-.01.265-.01H15.7V0H13.64Zm3.53.3a.846.846,0,0,1-.755-.43,2.333,2.333,0,0,1-.27-1.235,2.279,2.279,0,0,1,.27-1.225.85.85,0,0,1,.755-.42.846.846,0,0,1,.75.42,2.279,2.279,0,0,1,.27,1.225A2.333,2.333,0,0,1,17.92-.37.842.842,0,0,1,17.17.06Zm0-.33a.435.435,0,0,0,.253-.077.628.628,0,0,0,.195-.24A1.51,1.51,0,0,0,17.745-1a3.486,3.486,0,0,0,.045-.6,3.442,3.442,0,0,0-.045-.6,1.434,1.434,0,0,0-.128-.407.612.612,0,0,0-.195-.233.445.445,0,0,0-.253-.075.457.457,0,0,0-.255.075.6.6,0,0,0-.2.233,1.434,1.434,0,0,0-.128.407,3.442,3.442,0,0,0-.045.6,2.242,2.242,0,0,0,.173,1.018A.512.512,0,0,0,17.17-.27Z" transform="translate(22 10)"/></g><g transform="translate(4.182 46.908)"><rect class="b" width="83" height="16" rx="2" transform="translate(0 -0.152)"/><g transform="translate(5 4)"><rect class="g" width="12" height="6" rx="3" transform="translate(0 0.848)"/><rect class="d" width="13" height="4" transform="translate(50 1.848)"/><rect class="e" width="8" height="8" rx="4" transform="translate(40 -0.152)"/><path class="a" d="M-2.586-1.968h.249V-.213h.861V0h-1.11Zm2.106,2A.8.8,0,0,1-.82-.036a.758.758,0,0,1-.266-.205.963.963,0,0,1-.173-.324A1.388,1.388,0,0,1-1.32-.993a1.359,1.359,0,0,1,.061-.424.933.933,0,0,1,.173-.318.742.742,0,0,1,.266-.2A.826.826,0,0,1-.48-2a.811.811,0,0,1,.34.07.772.772,0,0,1,.267.2A.919.919,0,0,1,.3-1.414a1.349,1.349,0,0,1,.062.421A1.388,1.388,0,0,1,.3-.566a.948.948,0,0,1-.174.324A.773.773,0,0,1-.14-.036.8.8,0,0,1-.48.036Zm0-.219A.5.5,0,0,0-.241-.24.536.536,0,0,0-.058-.4.812.812,0,0,0,.06-.659,1.229,1.229,0,0,0,.1-.993a1.2,1.2,0,0,0-.042-.33.758.758,0,0,0-.118-.249A.538.538,0,0,0-.241-1.73.508.508,0,0,0-.48-1.785a.508.508,0,0,0-.238.056A.538.538,0,0,0-.9-1.572a.758.758,0,0,0-.118.249,1.2,1.2,0,0,0-.042.33,1.229,1.229,0,0,0,.042.335A.812.812,0,0,0-.9-.4.536.536,0,0,0-.718-.24.5.5,0,0,0-.48-.183ZM.567-1.968H.825L1.032-.9q.027.162.057.318t.057.318h.012q.033-.162.069-.32T1.3-.9l.273-1.071H1.8L2.07-.9q.036.156.072.315t.072.321h.012q.027-.162.054-.32T2.337-.9l.207-1.071h.24L2.376,0h-.3l-.3-1.185Q1.752-1.3,1.73-1.408l-.046-.224H1.671q-.024.114-.049.224t-.049.223L1.281,0h-.3Z" transform="translate(6 5)"/></g><path class="f" d="M.38-.4A.46.46,0,0,1,.507-.733.423.423,0,0,1,.825-.865a.423.423,0,0,1,.317.132A.46.46,0,0,1,1.27-.4a.454.454,0,0,1-.128.327A.423.423,0,0,1,.825.06.423.423,0,0,1,.507-.072.454.454,0,0,1,.38-.4Zm1.655,0a.46.46,0,0,1,.127-.333A.423.423,0,0,1,2.48-.865.423.423,0,0,1,2.8-.733.46.46,0,0,1,2.925-.4.454.454,0,0,1,2.8-.072.423.423,0,0,1,2.48.06a.423.423,0,0,1-.318-.133A.454.454,0,0,1,2.035-.4ZM3.69-.4a.46.46,0,0,1,.128-.333.423.423,0,0,1,.318-.132.423.423,0,0,1,.317.132A.46.46,0,0,1,4.58-.4a.454.454,0,0,1-.128.327A.423.423,0,0,1,4.135.06a.423.423,0,0,1-.318-.133A.454.454,0,0,1,3.69-.4Z" transform="translate(73 9)"/><path class="f" d="M.4-.34h.73V-2.69H.545v-.265a2.493,2.493,0,0,0,.383-.1A1.531,1.531,0,0,0,1.22-3.19h.315V-.34H2.2V0H.4ZM3.73.06a.846.846,0,0,1-.755-.43A2.333,2.333,0,0,1,2.7-1.605a2.279,2.279,0,0,1,.27-1.225.85.85,0,0,1,.755-.42.846.846,0,0,1,.75.42,2.279,2.279,0,0,1,.27,1.225A2.333,2.333,0,0,1,4.48-.37.842.842,0,0,1,3.73.06Zm0-.33a.435.435,0,0,0,.252-.077.628.628,0,0,0,.195-.24A1.51,1.51,0,0,0,4.3-1a3.486,3.486,0,0,0,.045-.6,3.442,3.442,0,0,0-.045-.6,1.434,1.434,0,0,0-.128-.407.612.612,0,0,0-.195-.233A.445.445,0,0,0,3.73-2.92a.457.457,0,0,0-.255.075.6.6,0,0,0-.2.233,1.434,1.434,0,0,0-.128.407,3.442,3.442,0,0,0-.045.6A2.242,2.242,0,0,0,3.277-.587.512.512,0,0,0,3.73-.27ZM6.355-3.55h.3L5.32.8h-.3Zm.76,3.21h.73V-2.69h-.58v-.265a2.493,2.493,0,0,0,.383-.1A1.531,1.531,0,0,0,7.94-3.19h.315V-.34h.66V0h-1.8Zm2.29.1q.36-.36.64-.65a6.387,6.387,0,0,0,.47-.537,2.667,2.667,0,0,0,.29-.455.925.925,0,0,0,.1-.4.667.667,0,0,0-.15-.45.567.567,0,0,0-.455-.175.657.657,0,0,0-.37.112,1.542,1.542,0,0,0-.31.273l-.235-.235a1.838,1.838,0,0,1,.425-.352,1.046,1.046,0,0,1,.54-.133.941.941,0,0,1,.7.257.928.928,0,0,1,.255.683,1.141,1.141,0,0,1-.1.452,2.554,2.554,0,0,1-.27.47,5.583,5.583,0,0,1-.41.505q-.238.262-.523.557l.27-.02q.14-.01.265-.01h.925V0H9.4Zm3.67-3.3h.3L12.04.8h-.3Zm.565,3.3q.36-.36.64-.65a6.388,6.388,0,0,0,.47-.537,2.667,2.667,0,0,0,.29-.455.925.925,0,0,0,.1-.4.667.667,0,0,0-.15-.45.567.567,0,0,0-.455-.175.657.657,0,0,0-.37.112,1.542,1.542,0,0,0-.31.273l-.235-.235a1.838,1.838,0,0,1,.425-.352,1.046,1.046,0,0,1,.54-.133.941.941,0,0,1,.7.257.928.928,0,0,1,.255.683,1.141,1.141,0,0,1-.1.452,2.554,2.554,0,0,1-.27.47,5.583,5.583,0,0,1-.41.505q-.238.262-.523.557l.27-.02q.14-.01.265-.01H15.7V0H13.64Zm3.53.3a.846.846,0,0,1-.755-.43,2.333,2.333,0,0,1-.27-1.235,2.279,2.279,0,0,1,.27-1.225.85.85,0,0,1,.755-.42.846.846,0,0,1,.75.42,2.279,2.279,0,0,1,.27,1.225A2.333,2.333,0,0,1,17.92-.37.842.842,0,0,1,17.17.06Zm0-.33a.435.435,0,0,0,.253-.077.628.628,0,0,0,.195-.24A1.51,1.51,0,0,0,17.745-1a3.486,3.486,0,0,0,.045-.6,3.442,3.442,0,0,0-.045-.6,1.434,1.434,0,0,0-.128-.407.612.612,0,0,0-.195-.233.445.445,0,0,0-.253-.075.457.457,0,0,0-.255.075.6.6,0,0,0-.2.233,1.434,1.434,0,0,0-.128.407,3.442,3.442,0,0,0-.045.6,2.242,2.242,0,0,0,.173,1.018A.512.512,0,0,0,17.17-.27Z" transform="translate(22 10)"/></g><g transform="translate(4.182 66.908)"><rect class="b" width="83" height="16" rx="2" transform="translate(0 -0.152)"/><g transform="translate(5 4)"><rect class="c" width="12" height="6" rx="3" transform="translate(0 0.848)"/><rect class="d" width="13" height="4" transform="translate(50 1.848)"/><rect class="e" width="8" height="8" rx="4" transform="translate(40 -0.152)"/><path class="a" d="M.27-1.968H.519v.825h.915v-.825h.252V0H1.434V-.927H.519V0H.27Zm1.956,0h.249V0H2.226ZM2.9-.984a1.261,1.261,0,0,1,.068-.426.928.928,0,0,1,.189-.321.826.826,0,0,1,.286-.2A.914.914,0,0,1,3.807-2a.689.689,0,0,1,.341.076.963.963,0,0,1,.223.166L4.23-1.6a.694.694,0,0,0-.173-.13.519.519,0,0,0-.247-.053.636.636,0,0,0-.27.056.565.565,0,0,0-.2.159.753.753,0,0,0-.131.251,1.092,1.092,0,0,0-.046.33A1.189,1.189,0,0,0,3.2-.655.744.744,0,0,0,3.328-.4a.556.556,0,0,0,.2.162.654.654,0,0,0,.281.057.627.627,0,0,0,.2-.032A.432.432,0,0,0,4.167-.3V-.813H3.75V-1.02h.645v.828a.736.736,0,0,1-.253.164.931.931,0,0,1-.356.064.9.9,0,0,1-.357-.069.781.781,0,0,1-.279-.2.93.93,0,0,1-.183-.321A1.31,1.31,0,0,1,2.9-.984Zm1.965-.984h.249v.825H6.03v-.825h.252V0H6.03V-.927H5.115V0H4.866Z" transform="translate(3 5)"/></g><path class="f" d="M.38-.4A.46.46,0,0,1,.507-.733.423.423,0,0,1,.825-.865a.423.423,0,0,1,.317.132A.46.46,0,0,1,1.27-.4a.454.454,0,0,1-.128.327A.423.423,0,0,1,.825.06.423.423,0,0,1,.507-.072.454.454,0,0,1,.38-.4Zm1.655,0a.46.46,0,0,1,.127-.333A.423.423,0,0,1,2.48-.865.423.423,0,0,1,2.8-.733.46.46,0,0,1,2.925-.4.454.454,0,0,1,2.8-.072.423.423,0,0,1,2.48.06a.423.423,0,0,1-.318-.133A.454.454,0,0,1,2.035-.4ZM3.69-.4a.46.46,0,0,1,.128-.333.423.423,0,0,1,.318-.132.423.423,0,0,1,.317.132A.46.46,0,0,1,4.58-.4a.454.454,0,0,1-.128.327A.423.423,0,0,1,4.135.06a.423.423,0,0,1-.318-.133A.454.454,0,0,1,3.69-.4Z" transform="translate(73 9)"/><path class="f" d="M1.245.06A.846.846,0,0,1,.49-.37,2.333,2.333,0,0,1,.22-1.605,2.279,2.279,0,0,1,.49-2.83a.85.85,0,0,1,.755-.42.846.846,0,0,1,.75.42,2.279,2.279,0,0,1,.27,1.225A2.333,2.333,0,0,1,1.995-.37.842.842,0,0,1,1.245.06Zm0-.33A.435.435,0,0,0,1.5-.347a.628.628,0,0,0,.2-.24A1.51,1.51,0,0,0,1.82-1a3.486,3.486,0,0,0,.045-.6,3.442,3.442,0,0,0-.045-.6,1.434,1.434,0,0,0-.127-.407.612.612,0,0,0-.2-.233.445.445,0,0,0-.252-.075.457.457,0,0,0-.255.075.6.6,0,0,0-.2.233,1.434,1.434,0,0,0-.127.407,3.442,3.442,0,0,0-.045.6A2.242,2.242,0,0,0,.793-.587.512.512,0,0,0,1.245-.27ZM3.66-1.55a.7.7,0,0,0,.332-.1,1.037,1.037,0,0,0,.338-.328,1.375,1.375,0,0,0-.22-.71.575.575,0,0,0-.485-.24.49.49,0,0,0-.218.05.521.521,0,0,0-.177.142.689.689,0,0,0-.118.223.913.913,0,0,0-.042.285.768.768,0,0,0,.145.5A.537.537,0,0,0,3.66-1.55ZM2.97-.535a.781.781,0,0,0,.238.185.626.626,0,0,0,.287.07.747.747,0,0,0,.32-.07A.681.681,0,0,0,4.08-.582,1.326,1.326,0,0,0,4.265-1,2.657,2.657,0,0,0,4.34-1.65a1.15,1.15,0,0,1-.35.3.824.824,0,0,1-.4.11.892.892,0,0,1-.66-.245,1.006,1.006,0,0,1-.245-.74,1.115,1.115,0,0,1,.075-.418,1.01,1.01,0,0,1,.2-.322.9.9,0,0,1,.3-.21.9.9,0,0,1,.363-.075,1.017,1.017,0,0,1,.438.1.944.944,0,0,1,.35.288,1.43,1.43,0,0,1,.23.48,2.45,2.45,0,0,1,.082.673,2.906,2.906,0,0,1-.1.817,1.6,1.6,0,0,1-.27.55,1.044,1.044,0,0,1-.388.31,1.106,1.106,0,0,1-.457.1,1,1,0,0,1-.447-.1,1.053,1.053,0,0,1-.323-.24ZM6.355-3.55h.3L5.32.8h-.3Zm.565,3.3q.36-.36.64-.65a6.387,6.387,0,0,0,.47-.537,2.667,2.667,0,0,0,.29-.455.925.925,0,0,0,.1-.4.667.667,0,0,0-.15-.45.567.567,0,0,0-.455-.175.657.657,0,0,0-.37.112,1.542,1.542,0,0,0-.31.273L6.9-2.765a1.838,1.838,0,0,1,.425-.352,1.046,1.046,0,0,1,.54-.133.941.941,0,0,1,.7.257.928.928,0,0,1,.255.683,1.141,1.141,0,0,1-.1.452,2.554,2.554,0,0,1-.27.47,5.583,5.583,0,0,1-.41.505Q7.8-.62,7.52-.325l.27-.02q.14-.01.265-.01H8.98V0H6.92Zm3.53.3a.846.846,0,0,1-.755-.43,2.333,2.333,0,0,1-.27-1.235,2.279,2.279,0,0,1,.27-1.225.85.85,0,0,1,.755-.42.846.846,0,0,1,.75.42,2.279,2.279,0,0,1,.27,1.225A2.333,2.333,0,0,1,11.2-.37.842.842,0,0,1,10.45.06Zm0-.33A.435.435,0,0,0,10.7-.347a.628.628,0,0,0,.2-.24A1.51,1.51,0,0,0,11.025-1a3.486,3.486,0,0,0,.045-.6,3.442,3.442,0,0,0-.045-.6,1.434,1.434,0,0,0-.127-.407.612.612,0,0,0-.2-.233.445.445,0,0,0-.252-.075.457.457,0,0,0-.255.075.6.6,0,0,0-.2.233,1.434,1.434,0,0,0-.127.407,3.442,3.442,0,0,0-.045.6A2.242,2.242,0,0,0,10-.587.512.512,0,0,0,10.45-.27Zm2.625-3.28h.3L12.04.8h-.3Zm.565,3.3q.36-.36.64-.65a6.388,6.388,0,0,0,.47-.537,2.667,2.667,0,0,0,.29-.455.925.925,0,0,0,.1-.4.667.667,0,0,0-.15-.45.567.567,0,0,0-.455-.175.657.657,0,0,0-.37.112,1.542,1.542,0,0,0-.31.273l-.235-.235a1.838,1.838,0,0,1,.425-.352,1.046,1.046,0,0,1,.54-.133.941.941,0,0,1,.7.257.928.928,0,0,1,.255.683,1.141,1.141,0,0,1-.1.452,2.554,2.554,0,0,1-.27.47,5.583,5.583,0,0,1-.41.505q-.238.262-.523.557l.27-.02q.14-.01.265-.01H15.7V0H13.64Zm3.53.3a.846.846,0,0,1-.755-.43,2.333,2.333,0,0,1-.27-1.235,2.279,2.279,0,0,1,.27-1.225.85.85,0,0,1,.755-.42.846.846,0,0,1,.75.42,2.279,2.279,0,0,1,.27,1.225A2.333,2.333,0,0,1,17.92-.37.842.842,0,0,1,17.17.06Zm0-.33a.435.435,0,0,0,.253-.077.628.628,0,0,0,.195-.24A1.51,1.51,0,0,0,17.745-1a3.486,3.486,0,0,0,.045-.6,3.442,3.442,0,0,0-.045-.6,1.434,1.434,0,0,0-.128-.407.612.612,0,0,0-.195-.233.445.445,0,0,0-.253-.075.457.457,0,0,0-.255.075.6.6,0,0,0-.2.233,1.434,1.434,0,0,0-.128.407,3.442,3.442,0,0,0-.045.6,2.242,2.242,0,0,0,.173,1.018A.512.512,0,0,0,17.17-.27Z" transform="translate(22 10)"/></g><g transform="translate(4.182 86.908)"><rect class="b" width="83" height="16" rx="2" transform="translate(0 -0.152)"/><g transform="translate(5 4)"><rect class="h" width="14" height="6" rx="3" transform="translate(0 0.848)"/><rect class="d" width="13" height="4" transform="translate(50 1.848)"/><rect class="e" width="8" height="8" rx="4" transform="translate(40 -0.152)"/><path class="a" d="M-4.986-1.968h.294l.381,1.056.144.4h.012l.138-.4.378-1.056h.294V0h-.237V-1.083q0-.132.01-.291t.023-.291h-.012l-.159.438L-4.1-.2h-.141L-4.62-1.227l-.156-.438h-.012q.009.132.021.291t.012.291V0h-.231Zm2.181,0h1.134v.21h-.885v.618h.747v.213h-.747v.714h.915V0H-2.805Zm1.581,0h.492a.906.906,0,0,1,.693.252A1.016,1.016,0,0,1,.2-.993a1.351,1.351,0,0,1-.06.419.837.837,0,0,1-.177.312.766.766,0,0,1-.288.195A1.065,1.065,0,0,1-.72,0h-.5ZM-.75-.2A.635.635,0,0,0-.232-.411.884.884,0,0,0-.06-.993a.847.847,0,0,0-.173-.573.65.65,0,0,0-.518-.2H-.975V-.2ZM.621-1.968H.87V0H.621Zm.78,0H1.65V-.807a1.048,1.048,0,0,0,.036.3.524.524,0,0,0,.1.192.352.352,0,0,0,.146.1.508.508,0,0,0,.18.032.517.517,0,0,0,.183-.032.363.363,0,0,0,.147-.1.511.511,0,0,0,.1-.192,1.048,1.048,0,0,0,.036-.3V-1.968h.24V-.813a1.274,1.274,0,0,1-.054.4.7.7,0,0,1-.149.262.539.539,0,0,1-.223.144.868.868,0,0,1-.279.043.882.882,0,0,1-.281-.043A.538.538,0,0,1,1.6-.152a.7.7,0,0,1-.148-.262,1.274,1.274,0,0,1-.054-.4Zm1.944,0h.294L4.02-.912l.144.4h.012l.138-.4.378-1.056h.294V0H4.749V-1.083q0-.132.01-.291t.023-.291H4.77l-.159.438L4.233-.2H4.092L3.711-1.227l-.156-.438H3.543q.009.132.021.291t.012.291V0H3.345Z" transform="translate(7 5)"/></g><path class="f" d="M.38-.4A.46.46,0,0,1,.507-.733.423.423,0,0,1,.825-.865a.423.423,0,0,1,.317.132A.46.46,0,0,1,1.27-.4a.454.454,0,0,1-.128.327A.423.423,0,0,1,.825.06.423.423,0,0,1,.507-.072.454.454,0,0,1,.38-.4Zm1.655,0a.46.46,0,0,1,.127-.333A.423.423,0,0,1,2.48-.865.423.423,0,0,1,2.8-.733.46.46,0,0,1,2.925-.4.454.454,0,0,1,2.8-.072.423.423,0,0,1,2.48.06a.423.423,0,0,1-.318-.133A.454.454,0,0,1,2.035-.4ZM3.69-.4a.46.46,0,0,1,.128-.333.423.423,0,0,1,.318-.132.423.423,0,0,1,.317.132A.46.46,0,0,1,4.58-.4a.454.454,0,0,1-.128.327A.423.423,0,0,1,4.135.06a.423.423,0,0,1-.318-.133A.454.454,0,0,1,3.69-.4Z" transform="translate(73 9)"/><path class="f" d="M1.245.06A.846.846,0,0,1,.49-.37,2.333,2.333,0,0,1,.22-1.605,2.279,2.279,0,0,1,.49-2.83a.85.85,0,0,1,.755-.42.846.846,0,0,1,.75.42,2.279,2.279,0,0,1,.27,1.225A2.333,2.333,0,0,1,1.995-.37.842.842,0,0,1,1.245.06Zm0-.33A.435.435,0,0,0,1.5-.347a.628.628,0,0,0,.2-.24A1.51,1.51,0,0,0,1.82-1a3.486,3.486,0,0,0,.045-.6,3.442,3.442,0,0,0-.045-.6,1.434,1.434,0,0,0-.127-.407.612.612,0,0,0-.2-.233.445.445,0,0,0-.252-.075.457.457,0,0,0-.255.075.6.6,0,0,0-.2.233,1.434,1.434,0,0,0-.127.407,3.442,3.442,0,0,0-.045.6A2.242,2.242,0,0,0,.793-.587.512.512,0,0,0,1.245-.27ZM3.66-1.55a.7.7,0,0,0,.332-.1,1.037,1.037,0,0,0,.338-.328,1.375,1.375,0,0,0-.22-.71.575.575,0,0,0-.485-.24.49.49,0,0,0-.218.05.521.521,0,0,0-.177.142.689.689,0,0,0-.118.223.913.913,0,0,0-.042.285.768.768,0,0,0,.145.5A.537.537,0,0,0,3.66-1.55ZM2.97-.535a.781.781,0,0,0,.238.185.626.626,0,0,0,.287.07.747.747,0,0,0,.32-.07A.681.681,0,0,0,4.08-.582,1.326,1.326,0,0,0,4.265-1,2.657,2.657,0,0,0,4.34-1.65a1.15,1.15,0,0,1-.35.3.824.824,0,0,1-.4.11.892.892,0,0,1-.66-.245,1.006,1.006,0,0,1-.245-.74,1.115,1.115,0,0,1,.075-.418,1.01,1.01,0,0,1,.2-.322.9.9,0,0,1,.3-.21.9.9,0,0,1,.363-.075,1.017,1.017,0,0,1,.438.1.944.944,0,0,1,.35.288,1.43,1.43,0,0,1,.23.48,2.45,2.45,0,0,1,.082.673,2.906,2.906,0,0,1-.1.817,1.6,1.6,0,0,1-.27.55,1.044,1.044,0,0,1-.388.31,1.106,1.106,0,0,1-.457.1,1,1,0,0,1-.447-.1,1.053,1.053,0,0,1-.323-.24ZM6.355-3.55h.3L5.32.8h-.3Zm.565,3.3q.36-.36.64-.65a6.387,6.387,0,0,0,.47-.537,2.667,2.667,0,0,0,.29-.455.925.925,0,0,0,.1-.4.667.667,0,0,0-.15-.45.567.567,0,0,0-.455-.175.657.657,0,0,0-.37.112,1.542,1.542,0,0,0-.31.273L6.9-2.765a1.838,1.838,0,0,1,.425-.352,1.046,1.046,0,0,1,.54-.133.941.941,0,0,1,.7.257.928.928,0,0,1,.255.683,1.141,1.141,0,0,1-.1.452,2.554,2.554,0,0,1-.27.47,5.583,5.583,0,0,1-.41.505Q7.8-.62,7.52-.325l.27-.02q.14-.01.265-.01H8.98V0H6.92Zm3.53.3a.846.846,0,0,1-.755-.43,2.333,2.333,0,0,1-.27-1.235,2.279,2.279,0,0,1,.27-1.225.85.85,0,0,1,.755-.42.846.846,0,0,1,.75.42,2.279,2.279,0,0,1,.27,1.225A2.333,2.333,0,0,1,11.2-.37.842.842,0,0,1,10.45.06Zm0-.33A.435.435,0,0,0,10.7-.347a.628.628,0,0,0,.2-.24A1.51,1.51,0,0,0,11.025-1a3.486,3.486,0,0,0,.045-.6,3.442,3.442,0,0,0-.045-.6,1.434,1.434,0,0,0-.127-.407.612.612,0,0,0-.2-.233.445.445,0,0,0-.252-.075.457.457,0,0,0-.255.075.6.6,0,0,0-.2.233,1.434,1.434,0,0,0-.127.407,3.442,3.442,0,0,0-.045.6A2.242,2.242,0,0,0,10-.587.512.512,0,0,0,10.45-.27Zm2.625-3.28h.3L12.04.8h-.3Zm.565,3.3q.36-.36.64-.65a6.388,6.388,0,0,0,.47-.537,2.667,2.667,0,0,0,.29-.455.925.925,0,0,0,.1-.4.667.667,0,0,0-.15-.45.567.567,0,0,0-.455-.175.657.657,0,0,0-.37.112,1.542,1.542,0,0,0-.31.273l-.235-.235a1.838,1.838,0,0,1,.425-.352,1.046,1.046,0,0,1,.54-.133.941.941,0,0,1,.7.257.928.928,0,0,1,.255.683,1.141,1.141,0,0,1-.1.452,2.554,2.554,0,0,1-.27.47,5.583,5.583,0,0,1-.41.505q-.238.262-.523.557l.27-.02q.14-.01.265-.01H15.7V0H13.64Zm3.53.3a.846.846,0,0,1-.755-.43,2.333,2.333,0,0,1-.27-1.235,2.279,2.279,0,0,1,.27-1.225.85.85,0,0,1,.755-.42.846.846,0,0,1,.75.42,2.279,2.279,0,0,1,.27,1.225A2.333,2.333,0,0,1,17.92-.37.842.842,0,0,1,17.17.06Zm0-.33a.435.435,0,0,0,.253-.077.628.628,0,0,0,.195-.24A1.51,1.51,0,0,0,17.745-1a3.486,3.486,0,0,0,.045-.6,3.442,3.442,0,0,0-.045-.6,1.434,1.434,0,0,0-.128-.407.612.612,0,0,0-.195-.233.445.445,0,0,0-.253-.075.457.457,0,0,0-.255.075.6.6,0,0,0-.2.233,1.434,1.434,0,0,0-.128.407,3.442,3.442,0,0,0-.045.6,2.242,2.242,0,0,0,.173,1.018A.512.512,0,0,0,17.17-.27Z" transform="translate(22 10)"/></g><g transform="translate(4.182 106.908)"><rect class="b" width="83" height="16" rx="2" transform="translate(0 -0.152)"/><g transform="translate(5 4)"><rect class="c" width="12" height="6" rx="3" transform="translate(0 0.848)"/><rect class="d" width="13" height="4" transform="translate(50 1.848)"/><rect class="e" width="8" height="8" rx="4" transform="translate(40 -0.152)"/><path class="a" d="M.27-1.968H.519v.825h.915v-.825h.252V0H1.434V-.927H.519V0H.27Zm1.956,0h.249V0H2.226ZM2.9-.984a1.261,1.261,0,0,1,.068-.426.928.928,0,0,1,.189-.321.826.826,0,0,1,.286-.2A.914.914,0,0,1,3.807-2a.689.689,0,0,1,.341.076.963.963,0,0,1,.223.166L4.23-1.6a.694.694,0,0,0-.173-.13.519.519,0,0,0-.247-.053.636.636,0,0,0-.27.056.565.565,0,0,0-.2.159.753.753,0,0,0-.131.251,1.092,1.092,0,0,0-.046.33A1.189,1.189,0,0,0,3.2-.655.744.744,0,0,0,3.328-.4a.556.556,0,0,0,.2.162.654.654,0,0,0,.281.057.627.627,0,0,0,.2-.032A.432.432,0,0,0,4.167-.3V-.813H3.75V-1.02h.645v.828a.736.736,0,0,1-.253.164.931.931,0,0,1-.356.064.9.9,0,0,1-.357-.069.781.781,0,0,1-.279-.2.93.93,0,0,1-.183-.321A1.31,1.31,0,0,1,2.9-.984Zm1.965-.984h.249v.825H6.03v-.825h.252V0H6.03V-.927H5.115V0H4.866Z" transform="translate(3 5)"/></g><path class="f" d="M.38-.4A.46.46,0,0,1,.507-.733.423.423,0,0,1,.825-.865a.423.423,0,0,1,.317.132A.46.46,0,0,1,1.27-.4a.454.454,0,0,1-.128.327A.423.423,0,0,1,.825.06.423.423,0,0,1,.507-.072.454.454,0,0,1,.38-.4Zm1.655,0a.46.46,0,0,1,.127-.333A.423.423,0,0,1,2.48-.865.423.423,0,0,1,2.8-.733.46.46,0,0,1,2.925-.4.454.454,0,0,1,2.8-.072.423.423,0,0,1,2.48.06a.423.423,0,0,1-.318-.133A.454.454,0,0,1,2.035-.4ZM3.69-.4a.46.46,0,0,1,.128-.333.423.423,0,0,1,.318-.132.423.423,0,0,1,.317.132A.46.46,0,0,1,4.58-.4a.454.454,0,0,1-.128.327A.423.423,0,0,1,4.135.06a.423.423,0,0,1-.318-.133A.454.454,0,0,1,3.69-.4Z" transform="translate(73 9)"/><path class="f" d="M1.245.06A.846.846,0,0,1,.49-.37,2.333,2.333,0,0,1,.22-1.605,2.279,2.279,0,0,1,.49-2.83a.85.85,0,0,1,.755-.42.846.846,0,0,1,.75.42,2.279,2.279,0,0,1,.27,1.225A2.333,2.333,0,0,1,1.995-.37.842.842,0,0,1,1.245.06Zm0-.33A.435.435,0,0,0,1.5-.347a.628.628,0,0,0,.2-.24A1.51,1.51,0,0,0,1.82-1a3.486,3.486,0,0,0,.045-.6,3.442,3.442,0,0,0-.045-.6,1.434,1.434,0,0,0-.127-.407.612.612,0,0,0-.2-.233.445.445,0,0,0-.252-.075.457.457,0,0,0-.255.075.6.6,0,0,0-.2.233,1.434,1.434,0,0,0-.127.407,3.442,3.442,0,0,0-.045.6A2.242,2.242,0,0,0,.793-.587.512.512,0,0,0,1.245-.27ZM3.66-1.55a.7.7,0,0,0,.332-.1,1.037,1.037,0,0,0,.338-.328,1.375,1.375,0,0,0-.22-.71.575.575,0,0,0-.485-.24.49.49,0,0,0-.218.05.521.521,0,0,0-.177.142.689.689,0,0,0-.118.223.913.913,0,0,0-.042.285.768.768,0,0,0,.145.5A.537.537,0,0,0,3.66-1.55ZM2.97-.535a.781.781,0,0,0,.238.185.626.626,0,0,0,.287.07.747.747,0,0,0,.32-.07A.681.681,0,0,0,4.08-.582,1.326,1.326,0,0,0,4.265-1,2.657,2.657,0,0,0,4.34-1.65a1.15,1.15,0,0,1-.35.3.824.824,0,0,1-.4.11.892.892,0,0,1-.66-.245,1.006,1.006,0,0,1-.245-.74,1.115,1.115,0,0,1,.075-.418,1.01,1.01,0,0,1,.2-.322.9.9,0,0,1,.3-.21.9.9,0,0,1,.363-.075,1.017,1.017,0,0,1,.438.1.944.944,0,0,1,.35.288,1.43,1.43,0,0,1,.23.48,2.45,2.45,0,0,1,.082.673,2.906,2.906,0,0,1-.1.817,1.6,1.6,0,0,1-.27.55,1.044,1.044,0,0,1-.388.31,1.106,1.106,0,0,1-.457.1,1,1,0,0,1-.447-.1,1.053,1.053,0,0,1-.323-.24ZM6.355-3.55h.3L5.32.8h-.3Zm.565,3.3q.36-.36.64-.65a6.387,6.387,0,0,0,.47-.537,2.667,2.667,0,0,0,.29-.455.925.925,0,0,0,.1-.4.667.667,0,0,0-.15-.45.567.567,0,0,0-.455-.175.657.657,0,0,0-.37.112,1.542,1.542,0,0,0-.31.273L6.9-2.765a1.838,1.838,0,0,1,.425-.352,1.046,1.046,0,0,1,.54-.133.941.941,0,0,1,.7.257.928.928,0,0,1,.255.683,1.141,1.141,0,0,1-.1.452,2.554,2.554,0,0,1-.27.47,5.583,5.583,0,0,1-.41.505Q7.8-.62,7.52-.325l.27-.02q.14-.01.265-.01H8.98V0H6.92Zm3.53.3a.846.846,0,0,1-.755-.43,2.333,2.333,0,0,1-.27-1.235,2.279,2.279,0,0,1,.27-1.225.85.85,0,0,1,.755-.42.846.846,0,0,1,.75.42,2.279,2.279,0,0,1,.27,1.225A2.333,2.333,0,0,1,11.2-.37.842.842,0,0,1,10.45.06Zm0-.33A.435.435,0,0,0,10.7-.347a.628.628,0,0,0,.2-.24A1.51,1.51,0,0,0,11.025-1a3.486,3.486,0,0,0,.045-.6,3.442,3.442,0,0,0-.045-.6,1.434,1.434,0,0,0-.127-.407.612.612,0,0,0-.2-.233.445.445,0,0,0-.252-.075.457.457,0,0,0-.255.075.6.6,0,0,0-.2.233,1.434,1.434,0,0,0-.127.407,3.442,3.442,0,0,0-.045.6A2.242,2.242,0,0,0,10-.587.512.512,0,0,0,10.45-.27Zm2.625-3.28h.3L12.04.8h-.3Zm.565,3.3q.36-.36.64-.65a6.388,6.388,0,0,0,.47-.537,2.667,2.667,0,0,0,.29-.455.925.925,0,0,0,.1-.4.667.667,0,0,0-.15-.45.567.567,0,0,0-.455-.175.657.657,0,0,0-.37.112,1.542,1.542,0,0,0-.31.273l-.235-.235a1.838,1.838,0,0,1,.425-.352,1.046,1.046,0,0,1,.54-.133.941.941,0,0,1,.7.257.928.928,0,0,1,.255.683,1.141,1.141,0,0,1-.1.452,2.554,2.554,0,0,1-.27.47,5.583,5.583,0,0,1-.41.505q-.238.262-.523.557l.27-.02q.14-.01.265-.01H15.7V0H13.64Zm3.53.3a.846.846,0,0,1-.755-.43,2.333,2.333,0,0,1-.27-1.235,2.279,2.279,0,0,1,.27-1.225.85.85,0,0,1,.755-.42.846.846,0,0,1,.75.42,2.279,2.279,0,0,1,.27,1.225A2.333,2.333,0,0,1,17.92-.37.842.842,0,0,1,17.17.06Zm0-.33a.435.435,0,0,0,.253-.077.628.628,0,0,0,.195-.24A1.51,1.51,0,0,0,17.745-1a3.486,3.486,0,0,0,.045-.6,3.442,3.442,0,0,0-.045-.6,1.434,1.434,0,0,0-.128-.407.612.612,0,0,0-.195-.233.445.445,0,0,0-.253-.075.457.457,0,0,0-.255.075.6.6,0,0,0-.2.233,1.434,1.434,0,0,0-.128.407,3.442,3.442,0,0,0-.045.6,2.242,2.242,0,0,0,.173,1.018A.512.512,0,0,0,17.17-.27Z" transform="translate(22 10)"/></g></g><g transform="translate(47.73 14.705)"><rect class="b" width="43.36" height="1.681"/></g><g transform="translate(0.084 0.084)"><path class="c" d="M92.03,130.264H.94a.794.794,0,0,1-.84-.84V.94A.794.794,0,0,1,.94.1H92.03a.794.794,0,0,1,.84.84V129.423A.9.9,0,0,1,92.03,130.264ZM1.781,128.583H91.189V1.781H1.781Z" transform="translate(-0.1 -0.1)"/></g><rect class="i" width="92.854" height="130.248"/><g transform="translate(10.336 12.269)"><path class="c" d="M14.317,15.692H12.3V14.6h5.294v1.092H15.577v5.966h-1.26ZM21.291,18.8l-.252-.84c-.084-.336-.252-.756-.336-1.176a6.19,6.19,0,0,0-.336-1.176h-.084a6.19,6.19,0,0,1-.336,1.176,6.19,6.19,0,0,1-.336,1.176l-.252.84Zm.336,1.008H19.275l-.588,1.849h-1.26L19.695,14.6h1.429l2.269,7.059h-1.26Zm2.941.168a3.018,3.018,0,0,0,.84.588,2.191,2.191,0,0,0,.924.252,1.694,1.694,0,0,0,.924-.252,1.037,1.037,0,0,0,.336-.672c0-.168,0-.252-.084-.336l-.252-.252a.637.637,0,0,0-.336-.168c-.168-.084-.252-.168-.42-.168l-1.008-.42-.5-.252a1.013,1.013,0,0,1-.42-.42,1.758,1.758,0,0,1-.336-.5.948.948,0,0,1-.084-.672,2.454,2.454,0,0,1,.168-.756,1.13,1.13,0,0,1,.5-.588,3.406,3.406,0,0,1,.756-.42,3.574,3.574,0,0,1,.924-.168,2.684,2.684,0,0,1,1.176.252,3.516,3.516,0,0,1,1.008.672l-.672.5a2.948,2.948,0,0,0-.672-.42,2.486,2.486,0,0,0-.84-.168,1.621,1.621,0,0,0-.84.252.851.851,0,0,0-.336.588.505.505,0,0,0,.084.336l.252.252A.637.637,0,0,0,26,17.2c.168.084.252.084.42.168l.924.42a2.106,2.106,0,0,1,.588.336,1.013,1.013,0,0,1,.42.42,1.758,1.758,0,0,1,.336.5,1.85,1.85,0,0,1,.084.672,2.986,2.986,0,0,1-.168.84,1.307,1.307,0,0,1-.5.672,3.406,3.406,0,0,1-.756.42,4.257,4.257,0,0,1-1.092.168,3.484,3.484,0,0,1-1.344-.252,3.525,3.525,0,0,1-1.176-.756Zm5.63-5.294h1.26v3.193h0l2.521-3.193h1.344L33.14,17.457l2.521,4.286H34.316l-1.933-3.277-1.008,1.26v1.933h-1.26V14.684Zm6.47,5.294a3.018,3.018,0,0,0,.84.588,2.191,2.191,0,0,0,.924.252,1.694,1.694,0,0,0,.924-.252,1.037,1.037,0,0,0,.336-.672c0-.168,0-.252-.084-.336l-.252-.252a.637.637,0,0,0-.336-.168c-.168-.084-.252-.168-.42-.168l-.924-.42-.5-.252a1.013,1.013,0,0,1-.42-.42,1.758,1.758,0,0,1-.336-.5.948.948,0,0,1-.084-.672,2.454,2.454,0,0,1,.168-.756,1.13,1.13,0,0,1,.5-.588,3.406,3.406,0,0,1,.756-.42,3.574,3.574,0,0,1,.924-.168,2.684,2.684,0,0,1,1.176.252,3.516,3.516,0,0,1,1.008.672l-.672.756a2.948,2.948,0,0,0-.672-.42,2.486,2.486,0,0,0-.84-.168,1.621,1.621,0,0,0-.84.252.851.851,0,0,0-.336.588.505.505,0,0,0,.084.336l.252.252a.637.637,0,0,0,.336.168c.168.084.252.084.42.168l.924.42a2.106,2.106,0,0,1,.588.336,1.013,1.013,0,0,1,.42.42,1.758,1.758,0,0,1,.336.5,1.85,1.85,0,0,1,.084.672,2.986,2.986,0,0,1-.168.84,1.307,1.307,0,0,1-.5.672,3.406,3.406,0,0,1-.756.42,4.257,4.257,0,0,1-1.092.168,3.484,3.484,0,0,1-1.344-.252,3.525,3.525,0,0,1-1.176-.756Z" transform="translate(-12.3 -14.6)"/></g></g><g transform="translate(-6.5 0.32)"><g transform="translate(0.88 1.258)"><rect class="a" width="90.434" height="126.28"/></g><g transform="translate(11.446 29.18)"><rect class="a" width="29.935" height="28.174"/></g><g transform="translate(10.817 28.426)"><path class="c" d="M-1273.336,845.732h-29.935a.594.594,0,0,1-.629-.629V816.929a.594.594,0,0,1,.629-.629h29.935a.594.594,0,0,1,.629.629V845.1A.594.594,0,0,1-1273.336,845.732Zm-29.306-1.258h28.677V817.558h-28.677Z" transform="translate(1303.9 -816.3)"/></g><g transform="translate(50.437 29.18)"><rect class="a" width="29.935" height="28.174"/></g><g transform="translate(49.808 28.551)"><path class="c" d="M-1242.336,845.832h-29.935a.594.594,0,0,1-.629-.629V817.029a.594.594,0,0,1,.629-.629h29.935a.594.594,0,0,1,.629.629V845.2A.808.808,0,0,1-1242.336,845.832Zm-29.306-1.258h28.677V817.658h-28.677Z" transform="translate(1272.9 -816.4)"/></g><g transform="translate(52.449 31.193)"><rect class="b" width="25.533" height="22.137"/></g><g transform="translate(13.458 31.193)"><rect class="b" width="25.533" height="22.137"/></g><g transform="translate(20.269 35.908)"><path class="a" d="M-1285.964,822.439c-1.761-.629-3.773.5-4.4.5s-2.767-1.132-4.4-.5c-1.761.629-2.515,2.767,0,5.911-1.132,2.264,0,6.54,2.641,6.54.629,0-.377-4.151,1.761-4.151s1.132,4.151,1.761,4.151c2.641,0,3.773-4.276,2.641-6.54,2.515-3.144,1.635-5.283,0-5.911" transform="translate(1296.385 -822.249)"/></g><g transform="translate(19.645 35.478)"><path class="c" d="M-1288.478,835.734c-.88,0-.88-.88-.88-1.887-.126-1.509-.251-2.264-.88-2.264s-.755.755-.88,2.264c0,.881-.126,1.887-.88,1.887a3.5,3.5,0,0,1-2.893-1.761,6.528,6.528,0,0,1-.5-5.283c-1.509-2.138-1.635-3.648-1.384-4.528a3,3,0,0,1,1.887-2.012,5.786,5.786,0,0,1,3.9.251,2.6,2.6,0,0,0,.755.252,2.6,2.6,0,0,0,.755-.252,5.786,5.786,0,0,1,3.9-.251,3.309,3.309,0,0,1,1.887,2.012c.252.88.252,2.39-1.384,4.528a6.336,6.336,0,0,1-.629,5.408A3.278,3.278,0,0,1-1288.478,835.734Zm.377-1.132Zm-2.138-4.276c1.887,0,2.012,2.264,2.138,3.522v.629a2.1,2.1,0,0,0,1.384-1.132,5.248,5.248,0,0,0,.377-4.528c-.126-.252-.126-.5.126-.629,1.132-1.384,1.635-2.767,1.384-3.773a1.487,1.487,0,0,0-1.132-1.132h0a4.918,4.918,0,0,0-3.019.252,3.49,3.49,0,0,1-2.264,0,5,5,0,0,0-3.019-.252,1.691,1.691,0,0,0-1.132,1.132c-.251,1.006.251,2.264,1.383,3.773a1.366,1.366,0,0,1,.126.629,4.879,4.879,0,0,0,.377,4.528,2.105,2.105,0,0,0,1.384,1.132v-.629C-1292.377,832.589-1292.251,830.325-1290.239,830.325Z" transform="translate(1296.881 -821.907)"/></g><g transform="translate(8.93 69.68)"><path class="c" d="M-1274.836,850.358h-29.935a.594.594,0,0,1-.629-.629.594.594,0,0,1,.629-.629h29.935a.594.594,0,0,1,.629.629A.674.674,0,0,1-1274.836,850.358Z" transform="translate(1305.4 -849.1)"/></g><g transform="translate(8.93 74.963)"><path class="c" d="M-1274.836,854.558h-29.935a.594.594,0,0,1-.629-.629.594.594,0,0,1,.629-.629h29.935a.594.594,0,0,1,.629.629A.674.674,0,0,1-1274.836,854.558Z" transform="translate(1305.4 -853.3)"/></g><g transform="translate(8.93 80.12)"><path class="c" d="M-1274.836,858.658h-29.935a.594.594,0,0,1-.629-.629.594.594,0,0,1,.629-.629h29.935a.594.594,0,0,1,.629.629A.674.674,0,0,1-1274.836,858.658Z" transform="translate(1305.4 -857.4)"/></g><g transform="translate(8.93 85.277)"><path class="c" d="M-1274.836,862.758h-29.935a.594.594,0,0,1-.629-.629.594.594,0,0,1,.629-.629h29.935a.594.594,0,0,1,.629.629A.674.674,0,0,1-1274.836,862.758Z" transform="translate(1305.4 -861.5)"/></g><g transform="translate(8.427 101.628)"><rect class="b" width="34.84" height="22.137"/></g><g transform="translate(47.795 101.628)"><rect class="b" width="34.84" height="22.137"/></g><g transform="translate(10.44 21.382)"><rect class="b" width="70.561" height="1.635"/></g><g transform="translate(46.16 64.398)"><path class="a" d="M-1241.966,872.445h-31.193a2.723,2.723,0,0,1-2.641-2.516V847.541a2.657,2.657,0,0,1,2.641-2.641h31.193a2.657,2.657,0,0,1,2.641,2.641h0V869.93a2.553,2.553,0,0,1-2.641,2.516h0" transform="translate(1275.8 -844.9)"/></g><g transform="translate(45.657 63.643)"><path class="c" d="M-1241.989,873.229H-1272.8a3.382,3.382,0,0,1-3.4-3.4V847.7a3.382,3.382,0,0,1,3.4-3.4h30.815a3.382,3.382,0,0,1,3.4,3.4v22.011A3.491,3.491,0,0,1-1241.989,873.229Zm-30.815-27.671a2.2,2.2,0,0,0-2.138,2.138v22.011a2.2,2.2,0,0,0,2.138,2.138h30.815a2.2,2.2,0,0,0,2.138-2.138V847.7a2.2,2.2,0,0,0-2.138-2.138Z" transform="translate(1276.2 -844.3)"/></g><g transform="translate(47.921 65.907)"><path class="b" d="M-1273.394,846.1h31.067a.992.992,0,0,1,1.006,1.006v22.262a.992.992,0,0,1-1.006,1.006h-31.067a.992.992,0,0,1-1.006-1.006V847.106A.992.992,0,0,1-1273.394,846.1Z" transform="translate(1274.4 -846.1)"/></g><g transform="translate(47.796 72.273)"><path class="j" d="M-1273.494,869.2h31.193a.992.992,0,0,0,1.006-1.006V851.462a1.463,1.463,0,0,0-1.258-.252,2.213,2.213,0,0,0-2.138,1.258c-.755,1.384-2.264,4.025-2.264,4.025v2.264h-6.541v-2.264s-1.509-2.516-2.264-4.025a2.617,2.617,0,0,0-3.4-.88,2.935,2.935,0,0,0-.88.88c-.755,1.384-2.264,4.025-2.264,4.025v2.264h-7.169v-2.264s-1.509-2.516-2.264-4.025a2.435,2.435,0,0,0-2.138-1.258h-.629v16.98c.125.629.5,1.006,1.006,1.006h0" transform="translate(1274.5 -851.161)"/></g><g transform="translate(50.456 71.703)"><path class="a" d="M-1261.713,850.949c-1.761-.755-3.773.5-4.528.5s-2.767-1.258-4.528-.5-2.515,2.767,0,5.912c-1.132,2.264,0,6.666,2.641,6.666.629,0-.377-4.277,1.761-4.277s1.132,4.277,1.761,4.277c2.641,0,3.9-4.4,2.641-6.666,2.767-3.144,1.887-5.283.251-5.912" transform="translate(1272.385 -850.708)"/></g><g transform="translate(52.449 73.184)"><path class="b" d="M-1263.253,856.683a5.119,5.119,0,0,0,1.006-3.019c-.126-1.258-.88-1.887-1.887-1.761s-1.384.629-2.39.755-1.258-.5-2.39-.755c-1.132-.126-1.761.377-1.886,1.761a5.116,5.116,0,0,0,1.006,3.019,5.752,5.752,0,0,0-.629,2.138,6.247,6.247,0,0,0,1.258,4.151c2.012.88,1.761-1.006,1.761-2.138a1.255,1.255,0,0,1,.5-1.509c.5-.377,1.132,0,1.509.5a1.077,1.077,0,0,1,0,.88c.125,1.132-.252,3.019,1.761,2.138a7.02,7.02,0,0,0,1.258-4.151c-.629-1.887-.88-2.012-.88-2.012" transform="translate(1270.8 -851.885)"/></g><g transform="translate(49.938 71.143)"><path class="c" d="M-1264.248,864.271c-.881,0-.881-1.006-.881-1.887-.125-1.509-.251-2.39-.88-2.39s-.754.88-.88,2.39c0,.88-.126,1.887-.88,1.887a3.5,3.5,0,0,1-2.893-1.761,6.812,6.812,0,0,1-.629-5.408c-1.635-2.138-1.635-3.648-1.383-4.528a3,3,0,0,1,1.886-2.012,5.124,5.124,0,0,1,3.9.252,2.612,2.612,0,0,0,.755.252,2.61,2.61,0,0,0,.755-.252,5.785,5.785,0,0,1,3.9-.252,3.114,3.114,0,0,1,1.761,2.012c.251.88.251,2.516-1.384,4.654a6.337,6.337,0,0,1-.629,5.408,2.626,2.626,0,0,1-2.516,1.635Zm0-1.258Zm-5.157-11.572a2.772,2.772,0,0,0-1.006.126,1.661,1.661,0,0,0-1.132,1.258c-.251,1.006.251,2.264,1.384,3.773a1.368,1.368,0,0,1,.126.629,4.855,4.855,0,0,0,.377,4.528,2.1,2.1,0,0,0,1.384,1.132v-.629c0-1.258.125-3.522,2.138-3.522s2.012,2.264,2.138,3.522v.629a2.1,2.1,0,0,0,1.383-1.132,5.279,5.279,0,0,0,.377-4.528c-.126-.252-.126-.5.126-.629,1.132-1.509,1.635-2.767,1.383-3.773a1.486,1.486,0,0,0-1.132-1.132h0a5.408,5.408,0,0,0-3.144.252,3.878,3.878,0,0,1-2.39,0A4.739,4.739,0,0,0-1269.4,851.442Z" transform="translate(1272.797 -850.263)"/></g><g transform="translate(53.632 75.025)"><path class="c" d="M-1263.873,858.067c-.377-1.132-.755-1.383-.755-1.887,0-.377.5-2.264.5-2.767s-.754,2.138-2.767,2.012c-2.013.126-2.641-2.516-2.641-2.012s.5,2.264.5,2.767c0,.377-.377.755-.755,1.887a4.244,4.244,0,0,0,.251,2.516c-.5-3.9,2.767-4.025,2.767-4.025s3.27.126,2.767,4.025a4.254,4.254,0,0,0,.126-2.516" transform="translate(1269.86 -853.349)"/></g><g transform="translate(66.052 71.703)"><path class="a" d="M-1249.313,850.949c-1.761-.755-3.773.5-4.528.5s-2.767-1.258-4.528-.5-2.515,2.767,0,5.912c-1.132,2.264,0,6.666,2.641,6.666.629,0-.377-4.277,1.761-4.277s1.132,4.277,1.761,4.277c2.767,0,3.9-4.4,2.767-6.666,2.641-3.144,1.761-5.283.126-5.912" transform="translate(1259.985 -850.708)"/></g><g transform="translate(67.92 73.184)"><path class="b" d="M-1250.953,856.683a5.119,5.119,0,0,0,1.006-3.019c-.126-1.258-.88-1.887-1.887-1.761s-1.384.629-2.39.755-1.258-.5-2.39-.755c-1.132-.126-1.76.377-1.886,1.761a5.118,5.118,0,0,0,1.006,3.019,5.758,5.758,0,0,0-.629,2.138,6.247,6.247,0,0,0,1.258,4.151c2.012.88,1.761-1.006,1.761-2.138a1.255,1.255,0,0,1,.5-1.509c.5-.377,1.132,0,1.509.5a1.075,1.075,0,0,1,0,.88c.126,1.132-.251,3.019,1.761,2.138a7.02,7.02,0,0,0,1.258-4.151c-.5-1.887-.88-2.012-.88-2.012" transform="translate(1258.5 -851.885)"/></g><g transform="translate(65.408 71.143)"><path class="c" d="M-1251.948,864.271c-.88,0-.88-.88-.88-1.887-.126-1.509-.252-2.39-.881-2.39s-.755.88-.88,2.39c0,.88-.126,1.887-.88,1.887a3.5,3.5,0,0,1-2.893-1.761,6.812,6.812,0,0,1-.629-5.408c-1.635-2.138-1.635-3.648-1.384-4.528a3,3,0,0,1,1.887-2.012,5.124,5.124,0,0,1,3.9.252,2.609,2.609,0,0,0,.755.252,2.6,2.6,0,0,0,.755-.252,5.786,5.786,0,0,1,3.9-.252,3.309,3.309,0,0,1,1.886,2.012c.252.88.252,2.516-1.384,4.654a6.336,6.336,0,0,1-.629,5.408,2.8,2.8,0,0,1-2.642,1.635Zm0-1.258Zm-5.031-11.572a2.772,2.772,0,0,0-1.006.126,1.661,1.661,0,0,0-1.132,1.258c-.251,1.006.252,2.264,1.384,3.773a1.371,1.371,0,0,1,.125.629,4.856,4.856,0,0,0,.378,4.528,2.1,2.1,0,0,0,1.383,1.132v-.629c0-1.258.126-3.522,2.138-3.522s2.013,2.264,2.138,3.522v.629a2.1,2.1,0,0,0,1.384-1.132,5.278,5.278,0,0,0,.377-4.528c-.126-.252-.126-.5.126-.629,1.132-1.509,1.635-2.767,1.383-3.773a1.487,1.487,0,0,0-1.132-1.132h0a5.326,5.326,0,0,0-3.144.252,3.486,3.486,0,0,1-2.264,0A5.922,5.922,0,0,0-1256.979,851.442Z" transform="translate(1260.497 -850.263)"/></g><g transform="translate(69.354 75.025)"><path class="c" d="M-1251.373,858.067c-.377-1.132-.755-1.383-.755-1.887s.5-2.264.5-2.767-.755,2.138-2.641,2.012c-2.013.126-2.641-2.516-2.767-2.012a21.338,21.338,0,0,0,.5,2.767c0,.377-.377.755-.755,1.887a4.246,4.246,0,0,0,.252,2.516c-.5-3.9,2.767-4.025,2.767-4.025s3.27.126,2.767,4.025a8.246,8.246,0,0,0,.126-2.516" transform="translate(1257.36 -853.349)"/></g><path class="c" d="M-1220.683,923.628h-90.811a.992.992,0,0,1-1.006-1.006V794.706a.992.992,0,0,1,1.006-1.006h90.811a.992.992,0,0,1,1.006,1.006V922.747A.972.972,0,0,1-1220.683,923.628Zm-89.8-1.887h88.925V795.587h-88.925Z" transform="translate(1312.5 -793.7)"/><g transform="translate(0.251 0.126)"><rect class="i" width="92.446" height="129.676"/></g><g transform="translate(59.68 36.234)"><path class="a" d="M-1254.673,822.749c-1.761-.629-3.648.5-4.4.5s-2.767-1.258-4.4-.5-2.516,2.767,0,5.911c-1.132,2.264,0,6.541,2.641,6.541.629,0-.378-4.151,1.761-4.151s1.132,4.151,1.761,4.151c2.641,0,3.773-4.276,2.641-6.541,2.39-3.144,1.51-5.283,0-5.911" transform="translate(1265.051 -822.508)"/></g><g transform="translate(58.887 35.548)"><path class="c" d="M-1257.278,835.971c-.88,0-.88-.88-.88-1.887-.126-1.509-.251-2.264-.88-2.264s-.755.755-.88,2.264c0,.88-.126,1.887-.88,1.887a3.5,3.5,0,0,1-2.893-1.761,6.305,6.305,0,0,1-.5-5.408c-1.509-2.138-1.635-3.648-1.384-4.528a3,3,0,0,1,1.887-2.012,5.126,5.126,0,0,1,3.9.252,2.609,2.609,0,0,0,.755.252,2.6,2.6,0,0,0,.755-.252,5.786,5.786,0,0,1,3.9-.252h0a3.309,3.309,0,0,1,1.887,2.012c.251.88.251,2.39-1.384,4.528a6.776,6.776,0,0,1-.5,5.408A3.5,3.5,0,0,1-1257.278,835.971Zm-1.761-5.408c1.887,0,2.012,2.264,2.138,3.522v.629a2.1,2.1,0,0,0,1.384-1.132,5.248,5.248,0,0,0,.377-4.528c-.126-.252-.126-.5.126-.629,1.132-1.384,1.635-2.767,1.384-3.773a1.487,1.487,0,0,0-1.132-1.132,4.918,4.918,0,0,0-3.019.252,3.878,3.878,0,0,1-2.39,0,4.918,4.918,0,0,0-3.019-.252,1.661,1.661,0,0,0-1.132,1.258c-.251,1.006.252,2.264,1.384,3.773a1.368,1.368,0,0,1,.126.629,4.855,4.855,0,0,0,.377,4.528,2.106,2.106,0,0,0,1.384,1.132v-.629C-1261.051,832.826-1260.926,830.562-1259.039,830.562Z" transform="translate(1265.681 -821.963)"/></g><g transform="translate(9.811 8.679)"><path class="c" d="M-1302.939,801.732h-1.761v-.881h4.779v.881h-1.761v5.283h-1.132Zm5.031,1.887h.88a2.369,2.369,0,0,0,1.006-.252,1.088,1.088,0,0,0,.377-.755.9.9,0,0,0-.377-.755,2.37,2.37,0,0,0-1.006-.252h-.88Zm2.39,3.4-1.383-2.39h-1.006v2.39h-1.132v-6.289h2.138a2.14,2.14,0,0,1,.88.126,1.788,1.788,0,0,1,.755.252,1.255,1.255,0,0,1,.5.629,2.14,2.14,0,0,1,.126.88,1.757,1.757,0,0,1-.377,1.132,2.256,2.256,0,0,1-.88.629l1.509,2.641Zm2.264-6.289h3.773v.88h-2.641v1.635h2.264v.88h-2.264v1.887h2.767v.881h-3.9Zm7.8,3.648-.251-.755a2.961,2.961,0,0,1-.251-1.006c-.125-.377-.125-.755-.251-1.006h0c-.126.377-.126.755-.251,1.006s-.126.629-.251,1.006l-.251.755Zm.252.88h-2.138l-.5,1.635h-1.132l2.012-6.289h1.258l2.013,6.289h-1.132Zm3.4-3.521h-1.761v-.881h4.78v.881h-1.761v5.283h-1.132Zm3.9-1.006h1.258l1.132,3.144.377,1.132h0l.377-1.132,1.132-3.144h1.258v6.289h-1.006v-4.906h0l-.5,1.384-1.132,2.893h-.5l-1.132-2.893-.5-1.384h0v4.906h-1.006Zm7.169,0h3.773v.88h-2.641v1.635h2.264v.88h-2.264v1.887h2.767v.881h-3.9Zm5.157,0h1.132l2.012,3.522.629,1.384h0a2.769,2.769,0,0,0-.126-1.006v-3.9h1.006v6.289h-1.132l-2.012-3.522-.629-1.384h0a2.766,2.766,0,0,0,.126,1.006v3.9h-1.006Zm7.547,1.006h-1.887v-.881h4.78v.881h-1.761v5.283h-1.132Zm5.911-1.006h2.138a2.771,2.771,0,0,1,1.006.126,1.087,1.087,0,0,1,.754.377,1.255,1.255,0,0,1,.5.629,2.138,2.138,0,0,1,.126.881,2.138,2.138,0,0,1-.126.88,1.253,1.253,0,0,1-.5.629l-.754.377a2.454,2.454,0,0,1-1.006.126h-1.006v2.264h-1.132v-6.289Zm2.012,3.019c.88,0,1.383-.377,1.383-1.132a1.358,1.358,0,0,0-.377-.88,2.965,2.965,0,0,0-1.006-.252h-.881v2.138h.881Zm3.647-3.019h1.132v5.283h2.641v.881h-3.773Zm7.421,3.648-.251-.755a2.961,2.961,0,0,1-.251-1.006c-.126-.377-.126-.755-.251-1.006h0c-.126.377-.126.755-.251,1.006s-.126.629-.252,1.006l-.251.755Zm.252.88h-2.138l-.5,1.635h-1.132l2.012-6.289h1.258l2.012,6.289h-1.132Zm2.515-4.528h1.132l2.012,3.522.629,1.384h0a2.764,2.764,0,0,0-.126-1.006v-3.9h1.006v6.289h-1.132l-2.012-3.522-.629-1.384h0a2.771,2.771,0,0,0,.126,1.006v3.9h-1.006Z" transform="translate(1304.7 -800.6)"/></g></g><g transform="translate(38.912 73.504)"><g transform="translate(15.333 0)"><path class="a" d="M35.086,7.47l112.184,2.941,1.278,78.132H28.1l.363-74.774C28.833,8.633,35.086,7.47,35.086,7.47Z" transform="translate(-27.667 -6.894)"/><path class="c" d="M141.407,82.167H20.923a.683.683,0,0,1-.723-.723V6.521A7.562,7.562,0,0,1,27.721-1H134.609a7.562,7.562,0,0,1,7.521,7.521V81.444A.683.683,0,0,1,141.407,82.167ZM21.646,80.72H140.683V6.521A6.111,6.111,0,0,0,134.609.446H27.721a6.111,6.111,0,0,0-6.075,6.075Z" transform="translate(-20.2 1)"/></g><g transform="translate(20.323 5.135)"><path class="k" d="M28.968,7.1H138.242V82.89H28.1V7.968a.933.933,0,0,1,.868-.868Z" transform="translate(-27.377 -6.377)"/><path class="c" d="M137.965,83.337H27.823a.683.683,0,0,1-.723-.723V7.691A1.605,1.605,0,0,1,28.691,6.1H137.965a.683.683,0,0,1,.723.723v75.79A.683.683,0,0,1,137.965,83.337ZM28.546,81.89h108.7V7.546H28.691a.156.156,0,0,0-.145.145v74.2Z" transform="translate(-27.1 -6.1)"/><g transform="translate(5.652 27.251)"><rect class="b" width="100" height="18" rx="2" transform="translate(0.113 -0.041)"/><g transform="translate(45.432 4.7)"><rect class="g" width="20" height="6" rx="3" transform="translate(29.681 1.259)"/><rect class="d" width="16" height="4" transform="translate(9.681 2.259)"/><rect class="e" width="8" height="8" rx="4" transform="translate(-0.319 0.259)"/><path class="a" d="M.147-.976a1.233,1.233,0,0,1,.07-.43.949.949,0,0,1,.193-.322.823.823,0,0,1,.288-.2A.907.907,0,0,1,1.052-2a.681.681,0,0,1,.322.075.883.883,0,0,1,.235.174l-.195.216a.633.633,0,0,0-.16-.118.434.434,0,0,0-.2-.043.5.5,0,0,0-.223.049A.511.511,0,0,0,.658-1.5a.663.663,0,0,0-.114.223,1.01,1.01,0,0,0-.04.3.848.848,0,0,0,.145.526.47.47,0,0,0,.394.19A.488.488,0,0,0,1.272-.32a.654.654,0,0,0,.181-.144l.195.213a.845.845,0,0,1-.273.211.772.772,0,0,1-.339.073A.92.92,0,0,1,.686-.032.785.785,0,0,1,.4-.227.926.926,0,0,1,.216-.544,1.254,1.254,0,0,1,.147-.976ZM2.638.034a.856.856,0,0,1-.351-.07.759.759,0,0,1-.273-.2.955.955,0,0,1-.177-.322,1.352,1.352,0,0,1-.063-.429,1.328,1.328,0,0,1,.063-.424.907.907,0,0,1,.177-.316.767.767,0,0,1,.273-.2A.872.872,0,0,1,2.638-2a.872.872,0,0,1,.351.069.781.781,0,0,1,.274.2.894.894,0,0,1,.178.316A1.328,1.328,0,0,1,3.5-.991a1.352,1.352,0,0,1-.063.429.94.94,0,0,1-.178.322.773.773,0,0,1-.274.2A.856.856,0,0,1,2.638.034Zm0-.3a.429.429,0,0,0,.21-.051.467.467,0,0,0,.159-.145.723.723,0,0,0,.1-.228,1.145,1.145,0,0,0,.036-.3.864.864,0,0,0-.136-.517.434.434,0,0,0-.37-.187.434.434,0,0,0-.37.187.864.864,0,0,0-.136.517,1.145,1.145,0,0,0,.036.3.723.723,0,0,0,.1.228.467.467,0,0,0,.159.145A.429.429,0,0,0,2.638-.269ZM3.9-1.962H4.28L4.634-1l.129.372h.012L4.9-1l.348-.965h.384V0H5.3V-.9q0-.069,0-.15t.01-.163q.006-.082.015-.162t.015-.148H5.338l-.159.447-.339.89H4.678l-.339-.89-.156-.447H4.172q.006.069.013.148t.015.162q.007.082.012.163t0,.15V0H3.9Zm2.233,0h.659a1.39,1.39,0,0,1,.3.03.622.622,0,0,1,.235.1.5.5,0,0,1,.156.187.644.644,0,0,1,.057.286.65.65,0,0,1-.057.282.552.552,0,0,1-.157.2.657.657,0,0,1-.237.117,1.111,1.111,0,0,1-.3.037H6.477V0H6.129ZM6.761-1q.432,0,.432-.357a.283.283,0,0,0-.108-.256.6.6,0,0,0-.324-.07H6.477V-1ZM7.9-1.962h.348V-.3h.815V0H7.9Zm1.5,0h1.181v.294H9.755v.5h.7v.294h-.7V-.3h.863V0H9.408Zm2.008.294h-.566v-.294H12.33v.294h-.566V0h-.348Zm1.241-.294h1.181v.294H13v.5h.7v.294H13V-.3h.863V0H12.656Zm1.612,0h.524a.969.969,0,0,1,.7.243.968.968,0,0,1,.252.728,1.306,1.306,0,0,1-.064.429.822.822,0,0,1-.186.31.776.776,0,0,1-.294.187A1.135,1.135,0,0,1,14.811,0h-.542Zm.5,1.678a.6.6,0,0,0,.46-.172.765.765,0,0,0,.16-.535.726.726,0,0,0-.162-.524.614.614,0,0,0-.459-.165h-.153v1.4Z" transform="translate(31.73 5.218)"/></g><path class="c" d="M.332-2.616h.7a1.291,1.291,0,0,1,.935.324,1.29,1.29,0,0,1,.336.971,1.742,1.742,0,0,1-.086.571,1.1,1.1,0,0,1-.248.414,1.035,1.035,0,0,1-.392.25A1.513,1.513,0,0,1,1.055,0H.332ZM1-.378a.8.8,0,0,0,.613-.23,1.019,1.019,0,0,0,.214-.713.968.968,0,0,0-.216-.7A.818.818,0,0,0,1-2.241H.8V-.378ZM3.521.045A.725.725,0,0,1,2.889-.3a1.759,1.759,0,0,1-.232-.989,1.7,1.7,0,0,1,.232-.977.732.732,0,0,1,.631-.33.731.731,0,0,1,.631.332,1.7,1.7,0,0,1,.232.975A1.759,1.759,0,0,1,4.152-.3.725.725,0,0,1,3.521.045Zm0-.36a.309.309,0,0,0,.17-.05A.393.393,0,0,0,3.824-.53a1.153,1.153,0,0,0,.088-.3,2.722,2.722,0,0,0,.032-.456,2.656,2.656,0,0,0-.032-.45,1.087,1.087,0,0,0-.088-.294.365.365,0,0,0-.134-.158.328.328,0,0,0-.17-.046.328.328,0,0,0-.17.046.365.365,0,0,0-.134.158,1.087,1.087,0,0,0-.088.294,2.656,2.656,0,0,0-.032.45,2.722,2.722,0,0,0,.032.456,1.153,1.153,0,0,0,.088.3.393.393,0,0,0,.134.166A.309.309,0,0,0,3.521-.315ZM4.843-.378h.567v-1.67H4.943v-.288a2.131,2.131,0,0,0,.33-.086,1.478,1.478,0,0,0,.258-.122h.344V-.378h.5V0H4.843Zm2.949-.635v-.575q0-.112.006-.264t.014-.264H7.8q-.048.1-.1.2l-.108.2-.464.707Zm.751.356h-.32V0H7.792V-.658H6.67V-.97L7.677-2.544h.547v1.53h.32Zm1.127.7A.725.725,0,0,1,9.039-.3a1.759,1.759,0,0,1-.232-.989,1.7,1.7,0,0,1,.232-.977.732.732,0,0,1,.631-.33.731.731,0,0,1,.631.332,1.7,1.7,0,0,1,.232.975A1.759,1.759,0,0,1,10.3-.3.725.725,0,0,1,9.671.045Zm0-.36a.309.309,0,0,0,.17-.05A.393.393,0,0,0,9.974-.53a1.153,1.153,0,0,0,.088-.3,2.722,2.722,0,0,0,.032-.456,2.656,2.656,0,0,0-.032-.45,1.087,1.087,0,0,0-.088-.294.365.365,0,0,0-.134-.158.328.328,0,0,0-.17-.046.328.328,0,0,0-.17.046.365.365,0,0,0-.134.158,1.087,1.087,0,0,0-.088.294,2.656,2.656,0,0,0-.032.45,2.722,2.722,0,0,0,.032.456,1.153,1.153,0,0,0,.088.3A.393.393,0,0,0,9.5-.364.309.309,0,0,0,9.671-.315Zm2.014-.863h.951v.336h-.951Zm2.27-1.439h.464V-.394H15.5V0h-1.55Zm2.2.308a.293.293,0,0,1-.2-.072.241.241,0,0,1-.08-.188.247.247,0,0,1,.08-.19.288.288,0,0,1,.2-.074.288.288,0,0,1,.2.074.247.247,0,0,1,.08.19.241.241,0,0,1-.08.188A.293.293,0,0,1,16.152-2.309Zm-.232.344h.46V0h-.46Zm1.047,0h.38l.032.268h.016a1.377,1.377,0,0,1,.27-.224.605.605,0,0,1,.33-.092.587.587,0,0,1,.346.092.571.571,0,0,1,.2.26,1.578,1.578,0,0,1,.292-.252.6.6,0,0,1,.34-.1.532.532,0,0,1,.46.2.965.965,0,0,1,.148.577V0h-.464V-1.174a.6.6,0,0,0-.074-.344.263.263,0,0,0-.226-.1.618.618,0,0,0-.412.244V0h-.46V-1.174a.6.6,0,0,0-.074-.344.267.267,0,0,0-.23-.1.618.618,0,0,0-.412.244V0h-.46Zm3.6-.344a.293.293,0,0,1-.2-.072.241.241,0,0,1-.08-.188.247.247,0,0,1,.08-.19.288.288,0,0,1,.2-.074.288.288,0,0,1,.2.074.247.247,0,0,1,.08.19.241.241,0,0,1-.08.188A.293.293,0,0,1,20.568-2.309Zm-.232.344h.46V0h-.46Zm1.115.364h-.28v-.344l.3-.02.056-.535h.384v.535h.5V-1.6h-.5v.935q0,.344.276.344A.487.487,0,0,0,22.3-.334a.5.5,0,0,0,.1-.032l.08.34a1.529,1.529,0,0,1-.182.05,1.032,1.032,0,0,1-.218.022.718.718,0,0,1-.29-.052.491.491,0,0,1-.192-.146.6.6,0,0,1-.108-.224,1.145,1.145,0,0,1-.034-.29Zm1.207.619a1.164,1.164,0,0,1,.076-.432.99.99,0,0,1,.2-.324.894.894,0,0,1,.29-.2.827.827,0,0,1,.336-.072.854.854,0,0,1,.352.068.686.686,0,0,1,.254.192.844.844,0,0,1,.154.3,1.293,1.293,0,0,1,.052.376.926.926,0,0,1-.02.216H23.105a.647.647,0,0,0,.186.412.553.553,0,0,0,.394.144.723.723,0,0,0,.238-.038,1.057,1.057,0,0,0,.218-.106l.156.288a1.411,1.411,0,0,1-.312.152,1.084,1.084,0,0,1-.36.06,1.018,1.018,0,0,1-.38-.07.9.9,0,0,1-.308-.2.921.921,0,0,1-.206-.322A1.188,1.188,0,0,1,22.658-.982Zm1.315-.176a.606.606,0,0,0-.1-.368.351.351,0,0,0-.3-.132.432.432,0,0,0-.308.126.606.606,0,0,0-.164.374Zm.719.176a1.254,1.254,0,0,1,.07-.432,1.007,1.007,0,0,1,.186-.324.83.83,0,0,1,.266-.2.708.708,0,0,1,.31-.072.63.63,0,0,1,.284.058,1.136,1.136,0,0,1,.232.158l-.016-.316v-.711h.46V0H26.1L26.07-.215h-.016a1.039,1.039,0,0,1-.252.184.642.642,0,0,1-.3.076.718.718,0,0,1-.589-.27A1.176,1.176,0,0,1,24.691-.982Zm.476,0a.857.857,0,0,0,.114.486.375.375,0,0,0,.33.166.548.548,0,0,0,.412-.22v-.915a.65.65,0,0,0-.2-.128.57.57,0,0,0-.2-.036.4.4,0,0,0-.324.168A.761.761,0,0,0,25.167-.986ZM1.347,5.04a1.141,1.141,0,0,1-.468-.094,1.012,1.012,0,0,1-.364-.272,1.273,1.273,0,0,1-.236-.43A1.8,1.8,0,0,1,.2,3.673,1.771,1.771,0,0,1,.28,3.108a1.209,1.209,0,0,1,.236-.422,1.023,1.023,0,0,1,.364-.264,1.162,1.162,0,0,1,.468-.092,1.162,1.162,0,0,1,.468.092,1.042,1.042,0,0,1,.366.264,1.192,1.192,0,0,1,.238.422,1.771,1.771,0,0,1,.084.565,1.8,1.8,0,0,1-.084.571,1.254,1.254,0,0,1-.238.43,1.031,1.031,0,0,1-.366.272A1.141,1.141,0,0,1,1.347,5.04Zm0-.4a.572.572,0,0,0,.28-.068.623.623,0,0,0,.212-.194.965.965,0,0,0,.136-.3,1.527,1.527,0,0,0,.048-.4,1.151,1.151,0,0,0-.182-.689.579.579,0,0,0-.494-.25.579.579,0,0,0-.494.25,1.151,1.151,0,0,0-.182.689,1.527,1.527,0,0,0,.048.4.965.965,0,0,0,.136.3.623.623,0,0,0,.212.194A.572.572,0,0,0,1.347,4.637ZM2.985,3.03h.38l.032.348h.016a.824.824,0,0,1,.252-.294.553.553,0,0,1,.527-.062l-.08.4a.839.839,0,0,0-.1-.024.616.616,0,0,0-.108-.008.428.428,0,0,0-.244.09.7.7,0,0,0-.22.314v1.2h-.46Zm1.3,1.435a.543.543,0,0,1,.276-.488,2.2,2.2,0,0,1,.879-.24.528.528,0,0,0-.02-.146.361.361,0,0,0-.062-.124.282.282,0,0,0-.108-.084.4.4,0,0,0-.166-.03A.753.753,0,0,0,4.8,3.41a1.723,1.723,0,0,0-.266.136l-.168-.308a1.987,1.987,0,0,1,.366-.18,1.233,1.233,0,0,1,.438-.076.674.674,0,0,1,.551.218.966.966,0,0,1,.18.629V4.992H5.523l-.036-.216H5.475a1.442,1.442,0,0,1-.282.188.71.71,0,0,1-.326.076.578.578,0,0,1-.422-.158A.557.557,0,0,1,4.284,4.465Zm.448-.036a.227.227,0,0,0,.078.192.322.322,0,0,0,.2.06.442.442,0,0,0,.22-.056,1.036,1.036,0,0,0,.208-.16v-.44a2.1,2.1,0,0,0-.336.064.926.926,0,0,0-.218.09.324.324,0,0,0-.118.114A.273.273,0,0,0,4.731,4.429ZM6.458,2.171h.46V4.513a.171.171,0,0,0,.032.118.093.093,0,0,0,.068.034h.03a.169.169,0,0,0,.042-.008L7.149,5a.62.62,0,0,1-.244.04.389.389,0,0,1-.348-.148.712.712,0,0,1-.1-.4ZM8.4,2.379H9.974V2.77H8.863v.667H9.8v.392H8.863V4.6h1.151v.392H8.4Zm2.5,1.59-.583-.939h.5l.22.372.09.166.09.166h.016l.076-.166.076-.166.188-.372h.476l-.579.991.623.971h-.5l-.24-.388q-.048-.088-.1-.176t-.1-.172h-.016q-.044.084-.086.17l-.086.178-.208.388h-.48Zm1.411.5a.543.543,0,0,1,.276-.488,2.2,2.2,0,0,1,.879-.24.528.528,0,0,0-.02-.146.361.361,0,0,0-.062-.124.282.282,0,0,0-.108-.084.4.4,0,0,0-.166-.03.753.753,0,0,0-.286.056,1.723,1.723,0,0,0-.266.136l-.168-.308a1.987,1.987,0,0,1,.366-.18,1.233,1.233,0,0,1,.438-.076.674.674,0,0,1,.551.218.966.966,0,0,1,.18.629V4.992h-.376l-.036-.216H13.5a1.442,1.442,0,0,1-.282.188.71.71,0,0,1-.326.076.578.578,0,0,1-.422-.158A.557.557,0,0,1,12.308,4.465Zm.448-.036a.227.227,0,0,0,.078.192.322.322,0,0,0,.2.06.442.442,0,0,0,.22-.056,1.036,1.036,0,0,0,.208-.16v-.44a2.1,2.1,0,0,0-.336.064.926.926,0,0,0-.218.09.324.324,0,0,0-.118.114A.273.273,0,0,0,12.755,4.429Zm1.726-1.4h.38l.032.268h.016a1.377,1.377,0,0,1,.27-.224.605.605,0,0,1,.33-.092.587.587,0,0,1,.346.092.571.571,0,0,1,.2.26,1.578,1.578,0,0,1,.292-.252.6.6,0,0,1,.34-.1.532.532,0,0,1,.46.2.965.965,0,0,1,.148.577V4.992h-.464V3.821a.6.6,0,0,0-.074-.344.263.263,0,0,0-.226-.1.618.618,0,0,0-.412.244V4.992h-.46V3.821a.6.6,0,0,0-.074-.344.267.267,0,0,0-.23-.1.618.618,0,0,0-.412.244V4.992h-.46Z" transform="translate(5.234 7.921)"/></g><g transform="translate(5.652 49.184)"><rect class="b" width="100" height="18" rx="2" transform="translate(0.113 0.026)"/><g transform="translate(45.432 4.7)"><rect class="h" width="20" height="6" rx="3" transform="translate(29.681 1.326)"/><rect class="d" width="16" height="4" transform="translate(9.681 2.326)"/><rect class="e" width="8" height="8" rx="4" transform="translate(-0.319 0.326)"/><path class="a" d="M-5.5-.491a.876.876,0,0,0,.24.16.646.646,0,0,0,.27.061.4.4,0,0,0,.255-.069A.222.222,0,0,0-4.647-.52a.213.213,0,0,0-.022-.1A.231.231,0,0,0-4.732-.7a.542.542,0,0,0-.1-.058q-.055-.027-.121-.054l-.27-.117A.928.928,0,0,1-5.361-1a.624.624,0,0,1-.127-.108.5.5,0,0,1-.091-.147.5.5,0,0,1-.034-.192.485.485,0,0,1,.049-.217.551.551,0,0,1,.136-.175.63.63,0,0,1,.208-.117A.807.807,0,0,1-4.955-2a.835.835,0,0,1,.33.067.851.851,0,0,1,.273.181l-.177.222a.873.873,0,0,0-.2-.123A.558.558,0,0,0-4.955-1.7a.372.372,0,0,0-.225.061.2.2,0,0,0-.084.169.179.179,0,0,0,.025.1A.261.261,0,0,0-5.17-1.3a.562.562,0,0,0,.1.057l.117.049.267.111a.919.919,0,0,1,.159.084A.578.578,0,0,1-4.4-.883a.482.482,0,0,1,.082.145.556.556,0,0,1,.03.19.534.534,0,0,1-.048.225.54.54,0,0,1-.139.184A.684.684,0,0,1-4.7-.012a.876.876,0,0,1-.3.046,1,1,0,0,1-.382-.075A1,1,0,0,1-5.7-.254Zm1.9-1.178h-.566v-.294h1.481v.294H-3.25V0H-3.6Zm1.954.863-.069-.24Q-1.76-1.2-1.8-1.366l-.085-.327H-1.9l-.084.328q-.042.163-.09.319l-.069.24Zm.078.273h-.659L-2.378,0h-.354l.638-1.96h.408L-1.047,0h-.366Zm1.109-.512h.279a.487.487,0,0,0,.307-.084.3.3,0,0,0,.106-.252.256.256,0,0,0-.106-.237.587.587,0,0,0-.307-.066H-.457ZM.266,0-.157-.769h-.3V0H-.8v-1.96h.662a1.283,1.283,0,0,1,.285.03.637.637,0,0,1,.228.1.471.471,0,0,1,.151.178.613.613,0,0,1,.055.276.577.577,0,0,1-.106.363.585.585,0,0,1-.283.2L.655,0ZM1.326-1.668H.76v-.294H2.241v.294H1.674V0H1.326Zm1.241-.294H3.748v.294H2.915v.5h.7v.294h-.7V-.3h.863V0H2.567Zm1.612,0H4.7a.969.969,0,0,1,.7.243.968.968,0,0,1,.252.728,1.306,1.306,0,0,1-.064.429.822.822,0,0,1-.186.31.776.776,0,0,1-.294.187A1.135,1.135,0,0,1,4.722,0H4.18Zm.5,1.678a.6.6,0,0,0,.46-.172A.765.765,0,0,0,5.3-.991a.726.726,0,0,0-.162-.524A.614.614,0,0,0,4.68-1.68H4.527v1.4Z" transform="translate(39.728 5.264)"/></g><path class="c" d="M.332-2.616h.7a1.291,1.291,0,0,1,.935.324,1.29,1.29,0,0,1,.336.971,1.742,1.742,0,0,1-.086.571,1.1,1.1,0,0,1-.248.414,1.035,1.035,0,0,1-.392.25A1.513,1.513,0,0,1,1.055,0H.332ZM1-.378a.8.8,0,0,0,.613-.23,1.019,1.019,0,0,0,.214-.713.968.968,0,0,0-.216-.7A.818.818,0,0,0,1-2.241H.8V-.378Zm2.474-.927a.475.475,0,0,0,.23-.068A.669.669,0,0,0,3.928-1.6a.9.9,0,0,0-.166-.488.4.4,0,0,0-.314-.152.349.349,0,0,0-.268.124.513.513,0,0,0-.112.356.486.486,0,0,0,.106.342A.386.386,0,0,0,3.473-1.306Zm-.539.783a.561.561,0,0,0,.182.138.507.507,0,0,0,.226.054.541.541,0,0,0,.226-.048.471.471,0,0,0,.186-.158.9.9,0,0,0,.13-.29A1.9,1.9,0,0,0,3.94-1.27a.808.808,0,0,1-.264.218.639.639,0,0,1-.292.078.9.9,0,0,1-.3-.048.615.615,0,0,1-.234-.146A.663.663,0,0,1,2.7-1.413a1.014,1.014,0,0,1-.054-.348.893.893,0,0,1,.064-.346.8.8,0,0,1,.172-.262.742.742,0,0,1,.254-.166.831.831,0,0,1,.31-.058.863.863,0,0,1,.352.074.8.8,0,0,1,.294.226,1.132,1.132,0,0,1,.2.386,1.844,1.844,0,0,1,.074.553,2.159,2.159,0,0,1-.082.635,1.286,1.286,0,0,1-.22.434.852.852,0,0,1-.32.25.929.929,0,0,1-.378.08.875.875,0,0,1-.4-.084,1.032,1.032,0,0,1-.284-.2Zm2.589-.783a.475.475,0,0,0,.23-.068A.669.669,0,0,0,5.978-1.6a.9.9,0,0,0-.166-.488A.4.4,0,0,0,5.5-2.241a.349.349,0,0,0-.268.124.513.513,0,0,0-.112.356.486.486,0,0,0,.106.342A.386.386,0,0,0,5.523-1.306Zm-.539.783a.561.561,0,0,0,.182.138.507.507,0,0,0,.226.054.541.541,0,0,0,.226-.048A.471.471,0,0,0,5.8-.536a.9.9,0,0,0,.13-.29A1.9,1.9,0,0,0,5.99-1.27a.808.808,0,0,1-.264.218.639.639,0,0,1-.292.078.9.9,0,0,1-.3-.048A.615.615,0,0,1,4.9-1.168a.663.663,0,0,1-.152-.246A1.014,1.014,0,0,1,4.7-1.761a.893.893,0,0,1,.064-.346.8.8,0,0,1,.172-.262.742.742,0,0,1,.254-.166.831.831,0,0,1,.31-.058.863.863,0,0,1,.352.074.8.8,0,0,1,.294.226,1.132,1.132,0,0,1,.2.386,1.844,1.844,0,0,1,.074.553,2.159,2.159,0,0,1-.082.635,1.286,1.286,0,0,1-.22.434.852.852,0,0,1-.32.25.929.929,0,0,1-.378.08.875.875,0,0,1-.4-.084,1.032,1.032,0,0,1-.284-.2Zm2.589-.783a.475.475,0,0,0,.23-.068A.669.669,0,0,0,8.028-1.6a.9.9,0,0,0-.166-.488.4.4,0,0,0-.314-.152.349.349,0,0,0-.268.124.513.513,0,0,0-.112.356.486.486,0,0,0,.106.342A.386.386,0,0,0,7.573-1.306Zm-.539.783a.561.561,0,0,0,.182.138.507.507,0,0,0,.226.054.541.541,0,0,0,.226-.048.471.471,0,0,0,.186-.158.9.9,0,0,0,.13-.29A1.9,1.9,0,0,0,8.04-1.27a.808.808,0,0,1-.264.218.639.639,0,0,1-.292.078.9.9,0,0,1-.3-.048.615.615,0,0,1-.234-.146A.663.663,0,0,1,6.8-1.413a1.014,1.014,0,0,1-.054-.348.893.893,0,0,1,.064-.346.8.8,0,0,1,.172-.262.742.742,0,0,1,.254-.166.831.831,0,0,1,.31-.058.863.863,0,0,1,.352.074.8.8,0,0,1,.294.226,1.132,1.132,0,0,1,.2.386,1.844,1.844,0,0,1,.074.553,2.159,2.159,0,0,1-.082.635,1.286,1.286,0,0,1-.22.434.852.852,0,0,1-.32.25.929.929,0,0,1-.378.08.875.875,0,0,1-.4-.084,1.032,1.032,0,0,1-.284-.2ZM8.955-.6a1.385,1.385,0,0,0,.26.19.667.667,0,0,0,.336.082A.5.5,0,0,0,9.9-.458a.466.466,0,0,0,.138-.36.467.467,0,0,0-.128-.352.467.467,0,0,0-.34-.124.556.556,0,0,0-.208.034,1.206,1.206,0,0,0-.2.11l-.22-.14.076-1.255h1.359v.388H9.423l-.052.615A.9.9,0,0,1,9.529-1.6a.656.656,0,0,1,.178-.022.985.985,0,0,1,.31.048.7.7,0,0,1,.254.146.7.7,0,0,1,.172.248.9.9,0,0,1,.064.354.894.894,0,0,1-.074.372.821.821,0,0,1-.2.276.848.848,0,0,1-.286.17A.994.994,0,0,1,9.61.045a1.141,1.141,0,0,1-.517-.106,1.349,1.349,0,0,1-.35-.246Zm2.729-.575h.951v.336h-.951Zm2.362.523a1.168,1.168,0,0,0,.32.214.861.861,0,0,0,.36.082.538.538,0,0,0,.34-.092.3.3,0,0,0,.116-.244.284.284,0,0,0-.03-.136.308.308,0,0,0-.084-.1.723.723,0,0,0-.128-.078q-.074-.036-.162-.072l-.36-.156a1.238,1.238,0,0,1-.19-.1.832.832,0,0,1-.17-.144.666.666,0,0,1-.122-.2.668.668,0,0,1-.046-.256.647.647,0,0,1,.066-.29.735.735,0,0,1,.182-.234.841.841,0,0,1,.278-.156,1.076,1.076,0,0,1,.354-.056,1.114,1.114,0,0,1,.44.09,1.135,1.135,0,0,1,.364.242l-.236.3a1.164,1.164,0,0,0-.264-.164.745.745,0,0,0-.3-.06.5.5,0,0,0-.3.082.264.264,0,0,0-.112.226.239.239,0,0,0,.034.13.347.347,0,0,0,.092.1.749.749,0,0,0,.134.076q.076.034.156.066l.356.148a1.225,1.225,0,0,1,.212.112.77.77,0,0,1,.166.148.643.643,0,0,1,.11.194.741.741,0,0,1,.04.254.712.712,0,0,1-.064.3.72.72,0,0,1-.186.246.912.912,0,0,1-.3.168,1.168,1.168,0,0,1-.394.062,1.341,1.341,0,0,1-.509-.1,1.329,1.329,0,0,1-.434-.284ZM16.052.4l.066.018a.29.29,0,0,0,.074.01.338.338,0,0,0,.25-.094A.594.594,0,0,0,16.584.1l.036-.124-.771-1.938h.468l.34.963q.044.128.086.27t.086.282h.016l.074-.278L16.991-1l.3-.963h.444L17.019.085a2.105,2.105,0,0,1-.132.3.98.98,0,0,1-.166.226.652.652,0,0,1-.216.144.739.739,0,0,1-.282.05.861.861,0,0,1-.14-.01.673.673,0,0,1-.116-.03Zm2.018-2.37h.38l.032.264H18.5a1.555,1.555,0,0,1,.286-.22.684.684,0,0,1,.358-.092.525.525,0,0,1,.46.2.986.986,0,0,1,.144.577V0h-.46V-1.174a.611.611,0,0,0-.072-.344.271.271,0,0,0-.236-.1.413.413,0,0,0-.226.062,1.44,1.44,0,0,0-.222.182V0h-.46Zm2.11.983a1.124,1.124,0,0,1,.08-.436.958.958,0,0,1,.216-.324.939.939,0,0,1,.314-.2,1.012,1.012,0,0,1,.374-.07.785.785,0,0,1,.334.066.882.882,0,0,1,.242.162l-.22.292a.737.737,0,0,0-.16-.106.4.4,0,0,0-.172-.038.48.48,0,0,0-.388.178.723.723,0,0,0-.148.478.724.724,0,0,0,.146.474.466.466,0,0,0,.378.178A.5.5,0,0,0,21.4-.38.871.871,0,0,0,21.579-.5l.192.292a1,1,0,0,1-.308.188.937.937,0,0,1-.336.064,1.017,1.017,0,0,1-.374-.068.842.842,0,0,1-.3-.2.924.924,0,0,1-.2-.324A1.234,1.234,0,0,1,20.18-.982Zm1.974-1.842h.46V-2.1l-.016.38a1.617,1.617,0,0,1,.274-.206.674.674,0,0,1,.354-.09.525.525,0,0,1,.46.2.986.986,0,0,1,.144.577V0h-.46V-1.174a.611.611,0,0,0-.072-.344.271.271,0,0,0-.236-.1.413.413,0,0,0-.226.062,1.44,1.44,0,0,0-.222.182V0h-.46Zm2.23.859h.38l.032.348h.016a.824.824,0,0,1,.252-.294.529.529,0,0,1,.3-.1.526.526,0,0,1,.224.04l-.08.4a.839.839,0,0,0-.1-.024.616.616,0,0,0-.108-.008.428.428,0,0,0-.244.09.7.7,0,0,0-.22.314V0h-.46Zm1.323.983a1.176,1.176,0,0,1,.076-.436.956.956,0,0,1,.206-.324.9.9,0,0,1,.3-.2.905.905,0,0,1,.352-.07.92.92,0,0,1,.354.07.874.874,0,0,1,.3.2,1,1,0,0,1,.206.324,1.149,1.149,0,0,1,.078.436,1.149,1.149,0,0,1-.078.436,1,1,0,0,1-.206.324.85.85,0,0,1-.3.2.944.944,0,0,1-.354.068.928.928,0,0,1-.352-.068.875.875,0,0,1-.3-.2.956.956,0,0,1-.206-.324A1.176,1.176,0,0,1,25.706-.982Zm.472,0a.824.824,0,0,0,.122.474.387.387,0,0,0,.338.178.392.392,0,0,0,.34-.178A.814.814,0,0,0,27.1-.982a.821.821,0,0,0-.124-.478.392.392,0,0,0-.34-.178.387.387,0,0,0-.338.178A.832.832,0,0,0,26.178-.982Zm1.85-.983h.38l.032.264h.016a1.556,1.556,0,0,1,.286-.22.684.684,0,0,1,.358-.092.525.525,0,0,1,.46.2.986.986,0,0,1,.144.577V0h-.46V-1.174a.611.611,0,0,0-.072-.344.271.271,0,0,0-.236-.1.413.413,0,0,0-.226.062,1.44,1.44,0,0,0-.222.182V0h-.46Zm2.11.983a1.176,1.176,0,0,1,.076-.436.956.956,0,0,1,.206-.324.9.9,0,0,1,.3-.2.905.905,0,0,1,.352-.07.92.92,0,0,1,.354.07.874.874,0,0,1,.3.2,1,1,0,0,1,.206.324A1.149,1.149,0,0,1,32-.982a1.149,1.149,0,0,1-.078.436,1,1,0,0,1-.206.324.85.85,0,0,1-.3.2.944.944,0,0,1-.354.068.928.928,0,0,1-.352-.068.875.875,0,0,1-.3-.2.956.956,0,0,1-.206-.324A1.176,1.176,0,0,1,30.138-.982Zm.472,0a.824.824,0,0,0,.122.474.387.387,0,0,0,.338.178.392.392,0,0,0,.34-.178.814.814,0,0,0,.124-.474.821.821,0,0,0-.124-.478.392.392,0,0,0-.34-.178.387.387,0,0,0-.338.178A.832.832,0,0,0,30.609-.982Zm1.83-.983h.46V-.794a.611.611,0,0,0,.072.344.266.266,0,0,0,.232.1.4.4,0,0,0,.226-.064.923.923,0,0,0,.21-.208V-1.965h.46V0h-.376l-.036-.288h-.012a1.153,1.153,0,0,1-.278.244.663.663,0,0,1-.354.092.525.525,0,0,1-.46-.2.986.986,0,0,1-.144-.577ZM34.7-.522a1.247,1.247,0,0,0,.262.162.683.683,0,0,0,.282.058.353.353,0,0,0,.236-.066.215.215,0,0,0,.076-.17.167.167,0,0,0-.036-.106.345.345,0,0,0-.1-.082.922.922,0,0,0-.136-.066l-.152-.062q-.1-.036-.2-.084a.787.787,0,0,1-.178-.116.585.585,0,0,1-.128-.158.434.434,0,0,1-.05-.214.531.531,0,0,1,.192-.424.78.78,0,0,1,.523-.164.905.905,0,0,1,.368.072,1.369,1.369,0,0,1,.284.164l-.212.28a1.1,1.1,0,0,0-.21-.122.551.551,0,0,0-.222-.046.322.322,0,0,0-.218.062.2.2,0,0,0-.07.154.157.157,0,0,0,.034.1.315.315,0,0,0,.09.074.915.915,0,0,0,.13.06l.154.056q.1.036.2.082a.821.821,0,0,1,.182.114.519.519,0,0,1,.132.166.509.509,0,0,1,.05.234.568.568,0,0,1-.05.238.549.549,0,0,1-.146.192.71.71,0,0,1-.24.13,1.034,1.034,0,0,1-.328.048,1.087,1.087,0,0,1-.4-.078,1.3,1.3,0,0,1-.342-.194ZM.859,2.77H.1V2.379H2.078V2.77H1.323V4.992H.859Zm1.2,1.243a1.164,1.164,0,0,1,.076-.432.99.99,0,0,1,.2-.324.894.894,0,0,1,.29-.2.827.827,0,0,1,.336-.072.854.854,0,0,1,.352.068.686.686,0,0,1,.254.192.844.844,0,0,1,.154.3,1.293,1.293,0,0,1,.052.376.926.926,0,0,1-.02.216H2.51a.647.647,0,0,0,.186.412.553.553,0,0,0,.394.144.723.723,0,0,0,.238-.038,1.057,1.057,0,0,0,.218-.106l.156.288a1.411,1.411,0,0,1-.312.152,1.084,1.084,0,0,1-.36.06,1.018,1.018,0,0,1-.38-.07.9.9,0,0,1-.308-.2.921.921,0,0,1-.206-.322A1.188,1.188,0,0,1,2.062,4.013Zm1.315-.176a.606.606,0,0,0-.1-.368.351.351,0,0,0-.3-.132.432.432,0,0,0-.308.126.606.606,0,0,0-.164.374Zm.839-1.666h.46V4.513a.171.171,0,0,0,.032.118.093.093,0,0,0,.068.034h.03a.169.169,0,0,0,.042-.008L4.907,5a.62.62,0,0,1-.244.04.389.389,0,0,1-.348-.148.712.712,0,0,1-.1-.4Zm.955,1.842a1.164,1.164,0,0,1,.076-.432.99.99,0,0,1,.2-.324.894.894,0,0,1,.29-.2.827.827,0,0,1,.336-.072.854.854,0,0,1,.352.068.686.686,0,0,1,.254.192.844.844,0,0,1,.154.3,1.293,1.293,0,0,1,.052.376.926.926,0,0,1-.02.216H5.618a.647.647,0,0,0,.186.412.553.553,0,0,0,.394.144.723.723,0,0,0,.238-.038,1.057,1.057,0,0,0,.218-.106l.156.288A1.411,1.411,0,0,1,6.5,4.98a1.084,1.084,0,0,1-.36.06,1.018,1.018,0,0,1-.38-.07.9.9,0,0,1-.308-.2.921.921,0,0,1-.206-.322A1.188,1.188,0,0,1,5.171,4.013Zm1.315-.176a.606.606,0,0,0-.1-.368.351.351,0,0,0-.3-.132.432.432,0,0,0-.308.126.606.606,0,0,0-.164.374Zm.719.176a1.254,1.254,0,0,1,.07-.432,1.006,1.006,0,0,1,.186-.324.83.83,0,0,1,.266-.2.708.708,0,0,1,.31-.072.63.63,0,0,1,.284.058,1.136,1.136,0,0,1,.232.158l-.016-.316V2.171H9V4.992h-.38L8.584,4.78H8.568a1.039,1.039,0,0,1-.252.184.642.642,0,0,1-.3.076.718.718,0,0,1-.589-.27A1.176,1.176,0,0,1,7.2,4.013Zm.476,0a.857.857,0,0,0,.114.486.375.375,0,0,0,.33.166.548.548,0,0,0,.412-.22V3.526a.65.65,0,0,0-.2-.128.57.57,0,0,0-.2-.036.4.4,0,0,0-.324.168A.761.761,0,0,0,7.68,4.009Zm1.77,0a1.164,1.164,0,0,1,.076-.432.99.99,0,0,1,.2-.324.894.894,0,0,1,.29-.2.827.827,0,0,1,.336-.072.854.854,0,0,1,.352.068.686.686,0,0,1,.254.192.844.844,0,0,1,.154.3,1.293,1.293,0,0,1,.052.376.926.926,0,0,1-.02.216H9.9a.647.647,0,0,0,.186.412.553.553,0,0,0,.394.144.723.723,0,0,0,.238-.038,1.057,1.057,0,0,0,.218-.106l.156.288a1.411,1.411,0,0,1-.312.152,1.084,1.084,0,0,1-.36.06,1.018,1.018,0,0,1-.38-.07.9.9,0,0,1-.308-.2.921.921,0,0,1-.206-.322A1.188,1.188,0,0,1,9.451,4.013Zm1.315-.176a.606.606,0,0,0-.1-.368.351.351,0,0,0-.3-.132.432.432,0,0,0-.308.126.606.606,0,0,0-.164.374ZM11.6,3.03h.38l.032.264h.016a1.556,1.556,0,0,1,.286-.22.684.684,0,0,1,.358-.092.525.525,0,0,1,.46.2.986.986,0,0,1,.144.577V4.992h-.46V3.821a.611.611,0,0,0-.072-.344.271.271,0,0,0-.236-.1.413.413,0,0,0-.226.062,1.44,1.44,0,0,0-.222.182V4.992H11.6Zm2.306.364h-.28V3.05l.3-.02.056-.535h.384V3.03h.5v.364h-.5v.935q0,.344.276.344a.487.487,0,0,0,.106-.012.5.5,0,0,0,.1-.032l.08.34a1.529,1.529,0,0,1-.182.05,1.032,1.032,0,0,1-.218.022.718.718,0,0,1-.29-.052.491.491,0,0,1-.192-.146.6.6,0,0,1-.108-.224,1.145,1.145,0,0,1-.034-.29Zm1.606-.707a.293.293,0,0,1-.2-.072.241.241,0,0,1-.08-.188.247.247,0,0,1,.08-.19.318.318,0,0,1,.408,0,.247.247,0,0,1,.08.19.241.241,0,0,1-.08.188A.293.293,0,0,1,15.517,2.686Zm-.232.344h.46V4.992h-.46Zm1.067,1.443a1.247,1.247,0,0,0,.262.162.684.684,0,0,0,.282.058.353.353,0,0,0,.236-.066.215.215,0,0,0,.076-.17.167.167,0,0,0-.036-.106.345.345,0,0,0-.1-.082.922.922,0,0,0-.136-.066l-.152-.062q-.1-.036-.2-.084a.787.787,0,0,1-.178-.116.585.585,0,0,1-.128-.158.434.434,0,0,1-.05-.214.531.531,0,0,1,.192-.424.78.78,0,0,1,.523-.164.905.905,0,0,1,.368.072,1.369,1.369,0,0,1,.284.164l-.212.28a1.1,1.1,0,0,0-.21-.122.551.551,0,0,0-.222-.046.322.322,0,0,0-.218.062.2.2,0,0,0-.07.154.157.157,0,0,0,.034.1.315.315,0,0,0,.09.074.915.915,0,0,0,.13.06l.154.056q.1.036.2.082a.82.82,0,0,1,.182.114.519.519,0,0,1,.132.166.509.509,0,0,1,.05.234.568.568,0,0,1-.05.238.549.549,0,0,1-.146.192.71.71,0,0,1-.24.13,1.034,1.034,0,0,1-.328.048,1.087,1.087,0,0,1-.4-.078,1.3,1.3,0,0,1-.342-.194Zm1.77-1.079h-.28V3.05l.3-.02.056-.535h.384V3.03h.5v.364h-.5v.935q0,.344.276.344a.487.487,0,0,0,.106-.012.5.5,0,0,0,.1-.032l.08.34a1.529,1.529,0,0,1-.182.05,1.032,1.032,0,0,1-.218.022.718.718,0,0,1-.29-.052.491.491,0,0,1-.192-.146.6.6,0,0,1-.108-.224,1.145,1.145,0,0,1-.034-.29ZM19.5,3.03h.38l.032.348h.016a.824.824,0,0,1,.252-.294.553.553,0,0,1,.527-.062l-.08.4a.839.839,0,0,0-.1-.024.616.616,0,0,0-.108-.008.428.428,0,0,0-.244.09.7.7,0,0,0-.22.314v1.2H19.5ZM21,5.4l.066.018a.29.29,0,0,0,.074.01.338.338,0,0,0,.25-.094.594.594,0,0,0,.142-.242l.036-.124L20.791,3.03h.468l.34.963q.044.128.086.27t.086.282h.016l.074-.278.074-.274.3-.963h.444l-.711,2.05a2.1,2.1,0,0,1-.132.3.98.98,0,0,1-.166.226.652.652,0,0,1-.216.144.739.739,0,0,1-.282.05.861.861,0,0,1-.14-.01.673.673,0,0,1-.116-.03Z" transform="translate(5.234 7.966)"/></g><rect class="b" width="66.294" height="1.679" transform="translate(43.729 14.895)"/><path class="c" d="M-14.135-3.253A4.109,4.109,0,0,1-13.9-4.687a3.164,3.164,0,0,1,.644-1.074A2.744,2.744,0,0,1-12.3-6.43a3.024,3.024,0,0,1,1.179-.23,2.271,2.271,0,0,1,1.074.25,2.945,2.945,0,0,1,.784.579l-.649.719a2.11,2.11,0,0,0-.534-.395,1.446,1.446,0,0,0-.664-.145,1.661,1.661,0,0,0-.744.165,1.7,1.7,0,0,0-.579.47,2.209,2.209,0,0,0-.38.744,3.367,3.367,0,0,0-.135.989,2.827,2.827,0,0,0,.485,1.753A1.566,1.566,0,0,0-11.148-.9a1.627,1.627,0,0,0,.764-.17,2.179,2.179,0,0,0,.6-.48l.649.709a2.818,2.818,0,0,1-.909.7,2.573,2.573,0,0,1-1.129.245,3.068,3.068,0,0,1-1.169-.22,2.617,2.617,0,0,1-.939-.649,3.086,3.086,0,0,1-.629-1.059A4.179,4.179,0,0,1-14.135-3.253Zm8.3,3.367A2.852,2.852,0,0,1-7-.122,2.531,2.531,0,0,1-7.911-.8,3.182,3.182,0,0,1-8.5-1.875,4.508,4.508,0,0,1-8.71-3.3,4.426,4.426,0,0,1-8.5-4.717a3.023,3.023,0,0,1,.589-1.054A2.556,2.556,0,0,1-7-6.43a2.905,2.905,0,0,1,1.169-.23,2.905,2.905,0,0,1,1.169.23,2.6,2.6,0,0,1,.914.659,2.98,2.98,0,0,1,.594,1.054A4.426,4.426,0,0,1-2.946-3.3a4.508,4.508,0,0,1-.21,1.429A3.134,3.134,0,0,1-3.75-.8a2.577,2.577,0,0,1-.914.679A2.852,2.852,0,0,1-5.833.113Zm0-1.009a1.43,1.43,0,0,0,.7-.17A1.557,1.557,0,0,0-4.6-1.55a2.411,2.411,0,0,0,.34-.759,3.818,3.818,0,0,0,.12-.994A2.878,2.878,0,0,0-4.6-5.027a1.446,1.446,0,0,0-1.234-.624,1.446,1.446,0,0,0-1.234.624A2.878,2.878,0,0,0-7.522-3.3a3.818,3.818,0,0,0,.12.994,2.411,2.411,0,0,0,.34.759,1.557,1.557,0,0,0,.529.485A1.43,1.43,0,0,0-5.833-.9Zm4.2-5.644H.111a3.228,3.228,0,0,1,2.338.809A3.225,3.225,0,0,1,3.288-3.3a4.354,4.354,0,0,1-.215,1.429A2.74,2.74,0,0,1,2.453-.841a2.586,2.586,0,0,1-.979.624,3.784,3.784,0,0,1-1.3.21H-1.637ZM.031-.946A1.992,1.992,0,0,0,1.564-1.52,2.549,2.549,0,0,0,2.1-3.3a2.421,2.421,0,0,0-.539-1.748A2.045,2.045,0,0,0,.031-5.6H-.479V-.946ZM4.606-6.54H8.542v.979H5.765v1.668H8.113v.979H5.765V-.986H8.642v.979H4.606Zm5.6,4.905a2.92,2.92,0,0,0,.8.534,2.153,2.153,0,0,0,.9.2,1.344,1.344,0,0,0,.849-.23.739.739,0,0,0,.29-.609.711.711,0,0,0-.075-.34.769.769,0,0,0-.21-.245,1.807,1.807,0,0,0-.32-.195q-.185-.09-.4-.18l-.9-.39a3.1,3.1,0,0,1-.475-.25,2.079,2.079,0,0,1-.425-.36,1.665,1.665,0,0,1-.3-.49,1.671,1.671,0,0,1-.115-.639,1.617,1.617,0,0,1,.165-.724,1.837,1.837,0,0,1,.455-.584,2.1,2.1,0,0,1,.694-.39,2.69,2.69,0,0,1,.884-.14,2.785,2.785,0,0,1,1.1.225,2.837,2.837,0,0,1,.909.6l-.589.739a2.911,2.911,0,0,0-.659-.41,1.861,1.861,0,0,0-.759-.15,1.241,1.241,0,0,0-.749.2.661.661,0,0,0-.28.564.6.6,0,0,0,.085.325.869.869,0,0,0,.23.24,1.873,1.873,0,0,0,.335.19q.19.085.39.165l.889.37a3.062,3.062,0,0,1,.529.28,1.926,1.926,0,0,1,.415.37,1.607,1.607,0,0,1,.275.485,1.852,1.852,0,0,1,.1.634,1.781,1.781,0,0,1-.16.749,1.8,1.8,0,0,1-.465.614,2.28,2.28,0,0,1-.739.42,2.92,2.92,0,0,1-.984.155,3.352,3.352,0,0,1-1.274-.25A3.324,3.324,0,0,1,9.531-.846Z" transform="translate(20.89 19.192)"/></g><g transform="translate(1 80.708)"><path class="a" d="M0,111.7H149.64v3.052c0,1.689-1.8,3.052-4.023,3.052H4.023C1.8,117.8,0,116.441,0,114.752Z" transform="translate(0.723 -110.904)"/><path class="c" d="M145.347,118.152H3.742c-2.586,0-4.742-1.716-4.742-3.776v-3.2c0-.343.287-.572.718-.572H149.37c.431,0,.718.229.718.572v3.2C150.089,116.493,148.005,118.152,145.347,118.152ZM.437,111.8v2.632c0,1.43,1.509,2.632,3.3,2.632H145.419c1.8,0,3.3-1.2,3.3-2.632V111.8Z" transform="translate(1 -110.6)"/></g></g></g></svg>