<?xml version="1.0" encoding="utf-8"?>
<!-- Generator: Adobe Illustrator 23.1.1, SVG Export Plug-In . SVG Version: 6.00 Build 0)  -->
<svg version="1.1" id="Layer_1" xmlns="http://www.w3.org/2000/svg" xmlns:xlink="http://www.w3.org/1999/xlink" x="0px" y="0px"
	 viewBox="0 0 181 181" style="enable-background:new 0 0 181 181;" xml:space="preserve">
<style type="text/css">
	.st0{fill:#1771B3;}
	.st1{fill:#FEFEFE;}
	.st2{fill:#C4DAEB;}
	.st3{fill:#FCFCFD;}
	.st4{fill:#FBFCFD;}
	.st5{fill:#FAFBFD;}
	.st6{fill:#F9FAFC;}
	.st7{fill:#2576B7;}
</style>
<title>media_doc</title>
<g>
	<path class="st0" d="M139.3,26.8c0,41.9,0,83.8-0.1,125.8c0,1.3,1.1,3.1-0.9,4c-1.7-0.9-3.5-0.5-5.3-0.5c-29.1-0.1-58.3,0-87.4-0.1
		c-2.6-0.5-3.5-2.1-3.5-4.6c0-1.2,0-2.3,0-3.5c0-37.9,0-75.8,0-113.7c0-8.9,0-9,9.1-9c27.4,0,54.8,0,82.2,0
		C135.4,25.3,137.8,24.4,139.3,26.8z"/>
	<path class="st1" d="M139.3,26.8c-2.1-0.9-4.4-1-6.7-1c-27.6,0-55.2,0-82.9,0c-6.4,0-6.6,0.2-6.6,6.7c0,38.9,0,77.9,0,116.8
		c0,2.4-0.7,5.1,2.4,6.4c0.7,0.2,0.8,0.5,0.1,0.8c-1.3,0-2.6,0-3.9,0c0-42.7,0-85.3-0.1-128c0-3,0.6-3.8,3.7-3.8
		c30.2,0.1,60.4,0.1,90.6,0.2C137,24.9,139.7,23.3,139.3,26.8z"/>
	<path class="st2" d="M45.5,156.5c0-0.3-0.1-0.5-0.1-0.8c30.3-0.1,60.6-0.1,90.9-0.2c0.8,0,1.7,0,1.9,1
		C107.4,156.5,76.4,156.5,45.5,156.5z"/>
	<path class="st1" d="M96.7,47.6c0,18.3,0,35.6,0,53c-4.1-4-8.4-7.6-12-11.8c-2.5-2.9-5.1-4-8.9-3.9C64.5,85.1,64.5,85,64.5,73.4
		c0-1.8,0.2-3.6,0-5.4c-0.6-4.3,0.7-6.6,5.5-5.7c7.8,1.4,13.9-1.2,18.9-7.4C90.9,52.4,93.6,50.4,96.7,47.6z"/>
	<path class="st3" d="M59.5,132.9c0-1.2,0-2.3,0-3.5c0-4.4,0.6-2.6,4.3-3.8c4.7-1.4,8.8,2,13.3-0.4c3.2-1.7,6.5,0.6,6.9,4.7
		c0.3,3.1,0.1,6.3,0.2,9.4c0,1.6-0.4,2.4-2.2,2.4c-1.7,0-2.8-0.3-2.7-2.4c0.1-2.3,0.1-4.6,0-6.9c-0.1-1.4,0.2-3.4-1.9-3.4
		c-1.9,0-2.8,1.5-2.9,3.3c-0.1,2.1,0,4.3-0.1,6.4c0,1.5,0.2,3-2.1,3c-2.2,0-2.9-0.8-2.8-2.9c0.1-2.3,0.1-4.6,0-6.9
		c0-1.3,0-2.9-1.8-3c-1.7-0.1-2.8,1.2-2.9,2.8c-0.2,2.5-0.1,4.9-0.1,7.4c0,1.4-0.1,2.6-2.1,2.5c-1.7,0-2.9-0.2-2.8-2.4
		C59.6,137.2,59.6,135,59.5,132.9C59.6,132.9,59.6,132.9,59.5,132.9z"/>
	<path class="st4" d="M94,140.9c0,2.2,0,4,0,5.8c0,1.5-0.7,2-2.1,1.9c-1.3-0.1-2.7,0.1-2.7-1.9c0-6.7,0-13.5,0-20.2
		c0-0.5,0.3-1.3,0.5-1.3c3.5-0.1,7.1-0.4,10.6,0c2.7,0.3,3.8,2.9,4.4,5.4C106.2,137.9,101.6,142.5,94,140.9z"/>
	<path class="st5" d="M120.3,73.7c-0.2,7.7-2.3,14.6-7.2,20.6c-0.8,1-1.4,3.5-3.7,1.7c-2-1.6-0.5-2.8,0.4-4.1
		c6.9-9.2,8.4-19.1,3.8-29.7c-1.1-2.5-2.8-4.8-4.4-7.1c-1-1.3-1.8-2.2-0.1-3.6c1.7-1.4,2.4,0.1,3.1,0.9
		C117.6,58.6,120,65.8,120.3,73.7z"/>
	<path class="st3" d="M113.8,119.8c6.4,0.2,8.4,3.6,5.2,8.8c-1,1.5,0.1,1.6,0.7,2.1c3,3.1,2.9,6.2-0.2,9c-2.9,2.7-9.6,2.5-11.9-0.1
		c-0.7-0.7-0.8-1.3-0.2-2.1c0.7-1,1.4-1.9,2.8-0.9c1.1,0.8,2.3,1.2,3.7,1.1c1.4-0.1,2.6-0.6,2.9-2.2c0.3-1.5-0.2-2.7-1.7-3.1
		c-4.5-1.4-6.9-2.8-0.4-5c1-0.3,1.7-1.1,1.2-2.3c-0.4-1.1-1.5-1.1-2.5-1.2c-1.9-0.1-5.1,3.2-5.3-0.8
		C107.8,120.2,111.7,120.2,113.8,119.8z"/>
	<path class="st6" d="M111.1,74.2c0.1,5.3-1.6,10-4.8,14.2c-0.8,1.1-1.6,2.8-3.4,1.1c-1.4-1.2-0.8-2.1,0-3.3
		c5.8-8.2,5.9-16.4-0.1-24.6c-1.1-1.4-1.4-2.5,0.1-3.7c1.7-1.3,2.4,0.3,3.1,1.2C109.6,63.5,111.3,68.5,111.1,74.2z"/>
	<path class="st7" d="M99.8,132.9c0,2.4-0.5,4.5-2.9,4.6c-3,0.1-2.9-2.4-2.9-4.5c0-2.2,0.6-4.1,3-4.1
		C99.7,128.9,99.7,131.2,99.8,132.9z"/>
</g>
</svg>
