<?xml version="1.0" encoding="utf-8"?>
<!-- Generator: Adobe Illustrator 23.1.1, SVG Export Plug-In . SVG Version: 6.00 Build 0)  -->
<svg version="1.1" id="Layer_1" xmlns="http://www.w3.org/2000/svg" xmlns:xlink="http://www.w3.org/1999/xlink" x="0px" y="0px"
	 viewBox="0 0 181 181" style="enable-background:new 0 0 181 181;" xml:space="preserve">
<style type="text/css">
	.st0{fill:#1771B3;}
	.st1{fill:#C4DAEB;}
	.st2{fill:#F6F8FB;}
	.st3{fill:#FCFDFD;}
	.st4{fill:#FBFBFD;}
	.st5{fill:#F9FAFC;}
	.st6{fill:#2476B7;}
	.st7{fill:#2979B8;}
</style>
<title>media_doc</title>
<g>
	<path class="st0" d="M138.9,155.8c-31.3,0-62.6,0-93.9-0.1c-1.3,0-3.1,1.1-4-0.9c0.9-1.4,0.5-2.9,0.5-4.4c0-39.9,0-79.9,0-119.8
		c0-1.5,0.4-3-0.5-4.4c0.9-2.1,2.7-0.9,4-0.9c31.3-0.1,62.6-0.1,93.9-0.1c0.9,1.4,0.5,2.9,0.5,4.4c0,40.6,0,81.2,0,121.8
		C139.4,152.8,139.8,154.4,138.9,155.8z"/>
	<path class="st1" d="M138.9,155.8c0-43.5,0-87,0-130.5c1.6-0.3,1,0.9,1,1.5c0,42.5,0,85,0,127.5
		C139.9,154.9,140.5,156.1,138.9,155.8z"/>
	<path class="st1" d="M41,26.2c1.7,1,1,2.7,1,4c0,40.2,0,80.3,0,120.5c0,1.3,0.8,3-1,4C41,111.9,41,69.1,41,26.2z"/>
	<path class="st2" d="M90.1,56.9c-11.1,0-22.3,0-33.4,0c-1.6,0-4.1,0.8-4-2.2c0.1-2.7,2.4-1.7,3.8-1.8c22.5-0.1,44.9-0.1,67.4,0
		c1.4,0,3.7-0.9,3.8,1.8c0,3.1-2.5,2.1-4.1,2.1C112.4,57,101.3,56.9,90.1,56.9z"/>
	<path class="st2" d="M89.9,68.9c-11,0-22,0-32.9,0c-1.6,0-4.1,1-4.3-1.9c-0.2-3.2,2.5-2,4-2c22.3-0.1,44.6-0.1,66.9,0
		c1.5,0,4.2-1.1,4,2c-0.1,3-2.7,1.9-4.2,1.9C112.2,68.9,101.1,68.9,89.9,68.9z"/>
	<path class="st2" d="M90.3,76.9c11.1,0,22.3,0,33.4,0c1.4,0,3.7-1,3.9,1.6c0.3,3-2.2,2.3-3.9,2.3c-22.5,0-44.9,0-67.4,0
		c-1.5,0-3.7,0.7-3.7-2c-0.1-2.8,2.2-1.9,3.6-1.9C67.6,76.8,78.9,76.9,90.3,76.9z"/>
	<path class="st2" d="M90.5,88.8c11,0,22,0,32.9,0.1c1.5,0,4.1-1.2,4.2,1.8c0.1,3.1-2.5,2.1-4.1,2.1c-22.3,0.1-44.6,0.1-66.9,0
		c-1.6,0-4.1,0.8-4-2.2c0.1-2.7,2.4-1.7,3.8-1.7C67.8,88.8,79.2,88.8,90.5,88.8z"/>
	<path class="st2" d="M90.1,100.8c11.1,0,22.3,0,33.4,0.1c1.5,0,4.2-1.1,4.1,2c-0.1,3-2.7,1.9-4.2,1.9c-22.1,0.1-44.3,0.1-66.4,0
		c-1.6,0-4.2,1-4.3-1.9c-0.1-3.4,2.9-2,4.5-2C68.2,100.7,79.1,100.8,90.1,100.8z"/>
	<path class="st3" d="M75.2,125.4c0-1.9,0-3.6,0-5.4c-0.1-1.8,1-2.1,2.5-2.1c1.6,0,2.4,0.5,2.4,2.2c0,6.6,0,13.2-0.1,19.8
		c0,0.6-0.4,1.1-0.7,1.7c-3.7-2.2-7.6,1.7-11.4-0.6c-2.9-1.8-3.7-4.5-3.7-7.6C64.4,127.2,68.2,124.3,75.2,125.4z"/>
	<path class="st4" d="M91.2,124.9c4.5-0.1,8.1,3.3,8.3,8c0.2,4.9-3.3,8.8-8,8.9c-4.5,0.1-8.1-3.4-8.4-8
		C82.9,129,86.5,125,91.2,124.9z"/>
	<path class="st5" d="M112.9,137.8c1.8-1,3.1-0.6,3.4,1.3c0.4,2.2-1.7,2.2-3,2.5c-3.5,0.9-6.7-0.1-8.7-3.2c-2.1-3.1-2.2-6.6-0.1-9.8
		c2-3,5.1-4.1,8.7-3.6c1.1,0.2,3,0.4,2.8,2.1c-0.2,1.5-1,2.5-3.1,2c-3.3-0.8-4.6,1.5-4.6,4.3C108.3,136.2,109.8,138,112.9,137.8z"/>
	<path class="st6" d="M75.2,133c-0.1,2.1,0.2,4.7-2.9,4.7c-2.7,0-2.9-2.3-2.9-4.3c0-2,0.4-4.2,2.9-4.4C75,128.8,75.2,130.9,75.2,133
		z"/>
	<path class="st7" d="M94.6,133.3c-0.3,1.9-0.4,4.2-3,4.4c-2.9,0.2-3.3-2.2-3.3-4.4c0-2.2,0.4-4.6,3.4-4.4
		C94.2,129.1,94.3,131.4,94.6,133.3z"/>
</g>
</svg>
