<svg id="Layer_1" data-name="Layer 1" xmlns="http://www.w3.org/2000/svg" viewBox="0 0 181 181"><title>media_doc</title><path d="M136.26,156.66H44.53a3.68,3.68,0,0,1-2.72-1.95c-.27-.43-.19-.93-.38-1.37V27.65A5.92,5.92,0,0,1,42,26a3.54,3.54,0,0,1,3.15-1.71h66a2.14,2.14,0,0,1,.67,0c.22.23.14.52.14.81V49.52a2.59,2.59,0,0,0,.08.92.8.8,0,0,0,.08.16l.1.23a5.62,5.62,0,0,0,.57,1.69,3.89,3.89,0,0,0,2.57,1.88l.23.09.16.08a2,2,0,0,0,.72.09h22.92a.18.18,0,0,1,.16.1,5.42,5.42,0,0,1,0,.57v97.22a4.29,4.29,0,0,1-1.35,3.43A3.71,3.71,0,0,1,136.26,156.66Z" style="fill:#036fb5"/><path d="M111.81,24.3l3.74,4.08L126,39.87,139.3,54.55a3.15,3.15,0,0,1,.22.29c-.16.2-.38.16-.58.16H115.88c-.27,0-.51-.13-.77-.07a4.14,4.14,0,0,1-3.37-3.77,28.53,28.53,0,0,1-.06-3.2V25.1C111.66,24.82,111.56,24.52,111.81,24.3Z" style="fill:#025992"/><path d="M104.11,100.55c-.08.15-.23.13-.37.13H100c-.34,0-.4-.13-.38-.43V98.73A13.2,13.2,0,0,1,97.85,100,7.9,7.9,0,0,1,89,99.39a9.78,9.78,0,0,1-3.55-9.3,8.88,8.88,0,0,1,4-6.49,7.77,7.77,0,0,1,9.64.66l.51.45V76.29c0-.37.08-.51.48-.5h4.06a1.47,1.47,0,0,1,0,.47v23.9A2.63,2.63,0,0,1,104.11,100.55Z" style="fill:#fefefe"/><path d="M63.84,82.7H67.9c.31,0,.43.08.41.41v1.53L69,84A7.79,7.79,0,0,1,80,84.9a10,10,0,0,1,2.37,8.25,9,9,0,0,1-3.82,6.49,7.76,7.76,0,0,1-9.6-.42c-.11-.1-.24-.18-.36-.28-.25.13-.15.36-.15.55v7.15c0,.18.07.38-.06.55-1.51,0-3,0-4.52,0-.13-.15-.07-.34-.07-.5V83.15C63.76,83,63.67,82.83,63.84,82.7Z" style="fill:#fefefe"/><path d="M115.6,79.35a6.19,6.19,0,0,0-1.72-.28c-.9,0-1.26.37-1.28,1.25v2c0,.3.07.42.4.41h2c.27,0,.41,0,.4.35v3c0,.29-.11.35-.37.35h-2c-.4,0-.49.1-.49.49v13.18c0,.44-.08.62-.58.6-1.12,0-2.24,0-3.36,0-.49,0-.54-.17-.54-.58v-13c0-.73.09-.65-.67-.65-1,0-1,0-1-1V83.18c0-.29,0-.43.38-.43s1,.21,1.22-.1.06-.82.08-1.21a24,24,0,0,1,.09-2.94,3.59,3.59,0,0,1,3.31-3.16,7.23,7.23,0,0,1,3.73.54c.21.08.33.17.33.43Z" style="fill:#fefefe"/><path d="M89.94,91.61a4.88,4.88,0,0,1,9.19-2.68,5,5,0,0,1,.55,2,7.48,7.48,0,0,1-.25,2.66,4.87,4.87,0,0,1-9.34-.54A8.68,8.68,0,0,1,89.94,91.61Z" style="fill:#046fb5"/><path d="M78,91.54a5.64,5.64,0,0,1-.69,2.87,4.7,4.7,0,0,1-5.42,2.43,5,5,0,0,1-3.7-4.47,5.49,5.49,0,0,1,1.45-4.62,4.75,4.75,0,0,1,5-1.17,4.81,4.81,0,0,1,3.25,3.88A3.89,3.89,0,0,1,78,91.54Z" style="fill:#046fb5"/></svg>